<?xml version="1.0" encoding="UTF-8" standalone="no"?>
<svg
   width="256.00003"
   height="256"
   viewBox="0 0 256.00003 256"
   data-name="Instagram w/circle"
   version="1.1"
   id="svg4"
   sodipodi:docname="ANEM.svg"
   inkscape:version="1.3.2 (091e20ef0f, 2023-11-25)"
   inkscape:export-filename="ANEM.png"
   inkscape:export-xdpi="95.999992"
   inkscape:export-ydpi="95.999992"
   xmlns:inkscape="http://www.inkscape.org/namespaces/inkscape"
   xmlns:sodipodi="http://sodipodi.sourceforge.net/DTD/sodipodi-0.dtd"
   xmlns="http://www.w3.org/2000/svg"
   xmlns:svg="http://www.w3.org/2000/svg">
  <defs
     id="defs8" />
  <sodipodi:namedview
     id="namedview6"
     pagecolor="#ffffff"
     bordercolor="#666666"
     borderopacity="1.0"
     inkscape:pageshadow="2"
     inkscape:pageopacity="0"
     inkscape:pagecheckerboard="true"
     showgrid="false"
     inkscape:zoom="1.8089426"
     inkscape:cx="95.359576"
     inkscape:cy="114.43149"
     inkscape:window-width="1920"
     inkscape:window-height="934"
     inkscape:window-x="0"
     inkscape:window-y="44"
     inkscape:window-maximized="1"
     inkscape:current-layer="g115"
     width="16.2px"
     height="16px"
     scale-x="1"
     inkscape:showpageshadow="0"
     inkscape:deskcolor="#ffffff" />
  <g
     id="g115"
     transform="matrix(62.5,0,0,62.5,-154.51064,-193.68531)">
    <g
       id="g2"
       style="display:inline"
       transform="matrix(0.02336489,0,0,0.02336489,0.75486378,-20.788344)">
      <path
         id="path2996-0"
         d="m 74.159067,1109.9119 a 86.993323,86.993323 0 0 1 87.068393,-86.8931 86.993323,86.993323 0 0 1 86.91819,87.0433 86.993323,86.993323 0 0 1 -87.01836,86.9432 86.993323,86.993323 0 0 1 -86.968274,-86.9933"
         style="display:inline;opacity:1;fill:#ffffff;fill-opacity:1;stroke:#21366e;stroke-width:1.31911;stroke-linecap:round;stroke-linejoin:round;stroke-miterlimit:4;stroke-dasharray:none;stroke-dashoffset:0;stroke-opacity:1"
         inkscape:connector-curvature="0" />
      <path
         id="path981"
         d="m 90.258576,1109.9304 a 70.893802,70.893802 0 0 1 70.954984,-70.8121 70.893802,70.893802 0 0 1 70.83256,70.9345 70.893802,70.893802 0 0 1 -70.91421,70.853 70.893802,70.893802 0 0 1 -70.873378,-70.8938"
         style="display:inline;opacity:1;fill:#ffffff;fill-opacity:1;stroke:#003c71;stroke-width:1.31911;stroke-linecap:round;stroke-linejoin:round;stroke-miterlimit:4;stroke-dasharray:none;stroke-dashoffset:0;stroke-opacity:1"
         inkscape:connector-curvature="0" />
      <g
         id="g4763"
         style="stroke:#e0004d;stroke-opacity:1"
         transform="matrix(0.97691734,0,0,0.97691734,3.719821,25.622014)">
        <path
           style="fill:none;stroke:#e0004d;stroke-width:3.71123;stroke-linecap:round;stroke-linejoin:round;stroke-miterlimit:4;stroke-dasharray:none;stroke-opacity:1"
           d="m 168.75516,1118.599 c 0,0 6.2709,0 9.42988,0 3.15897,0 9.52394,0 9.52394,0"
           id="path6657"
           inkscape:connector-curvature="0"
           sodipodi:nodetypes="czc" />
        <g
           transform="matrix(0.74224537,0,0,0.74224537,-160.61103,807.64932)"
           id="g989"
           style="stroke:#e0004d;stroke-opacity:1">
          <g
             id="g4682"
             style="stroke:#e0004d;stroke-opacity:1">
            <path
               style="fill:none;stroke:#e0004d;stroke-width:4.9606;stroke-linecap:square;stroke-linejoin:miter;stroke-miterlimit:4;stroke-dasharray:none;stroke-opacity:1"
               d="M 381.13056,406.77369 H 337.97288"
               id="path6651"
               inkscape:connector-curvature="0"
               sodipodi:nodetypes="cc" />
            <path
               style="fill:none;stroke:#e0004d;stroke-width:4.72711;stroke-linecap:round;stroke-linejoin:round;stroke-miterlimit:1.3;stroke-dasharray:none;stroke-opacity:1;marker-start:none;marker-mid:none;marker-end:none"
               d="m 434.9769,318.31504 c 0.31027,63.30582 0.0156,-94.77804 0.32593,178.31301 l -0.11185,-26.60951 c 1.60342,-13.82507 -22.48607,-106.53539 -46.16053,-119.4952 l 0.27674,132.5289"
               inkscape:connector-curvature="0"
               sodipodi:nodetypes="ccccc"
               id="path3923" />
            <path
               style="fill:none;stroke:#e0004d;stroke-width:5;stroke-linecap:round;stroke-linejoin:round;stroke-miterlimit:4;stroke-dasharray:none;stroke-opacity:1"
               d="m 396.1275,488.68843 c -1.06716,-0.55148 -2.12667,-1.097 -3.14984,-1.68703 C 330.4729,450.95682 330.92864,373.91703 381.13055,336.41657 l 0.35356,132.74978"
               id="path6649"
               inkscape:connector-curvature="0"
               sodipodi:nodetypes="cscc" />
            <path
               style="fill:none;stroke:#e0004d;stroke-width:5;stroke-linecap:round;stroke-linejoin:round;stroke-miterlimit:4;stroke-dasharray:none;stroke-opacity:1"
               d="m 425.24449,318.43571 c 62.74815,-8.46441 48.20238,63.80137 51.34547,95.71971 l 30.74809,-55.81854 c 26.99891,38.39634 14.97504,96.27695 -20.87803,120.27312"
               id="path6653"
               inkscape:connector-curvature="0"
               sodipodi:nodetypes="cccc" />
            <path
               style="fill:none;stroke:#e0004d;stroke-width:5;stroke-linecap:round;stroke-linejoin:round;stroke-miterlimit:4;stroke-dasharray:none;stroke-opacity:1"
               d="m 479.24682,483.29807 c -15.58349,9.0591 -36.30939,18.43791 -36.30939,-1.2071 l -0.26777,-102.89444 c -1.18336,-56.03685 33.34993,-63.33585 58.67336,-29.05814"
               id="path6655"
               inkscape:connector-curvature="0"
               sodipodi:nodetypes="cccc" />
          </g>
          <path
             style="fill:none;stroke:#e0004d;stroke-width:4.512;stroke-linecap:round;stroke-linejoin:round;stroke-miterlimit:1.3;stroke-dasharray:none;stroke-opacity:1;marker-start:none;marker-mid:none;marker-end:none"
             d="m 435.00435,326.94538 c 0.31312,54.6535 0.0158,-116.49614 0.32893,119.27022 l -0.1612,-23.26956 c 1.6182,-11.93553 -22.46824,-81.00648 -46.36091,-92.19501 l 0.27929,95.34976"
             inkscape:connector-curvature="0"
             sodipodi:nodetypes="ccccc"
             id="path3830" />
        </g>
      </g>
      <path
         id="path927"
         d="m 90.258576,1109.9304 a 70.893802,70.893802 0 0 1 70.954984,-70.8121 70.893802,70.893802 0 0 1 70.83256,70.9345 70.893802,70.893802 0 0 1 -70.91421,70.853 70.893802,70.893802 0 0 1 -70.873378,-70.8938"
         style="display:inline;opacity:1;fill:none;fill-opacity:1;stroke:#21366e;stroke-width:1.31911;stroke-linecap:round;stroke-linejoin:round;stroke-miterlimit:4;stroke-dasharray:none;stroke-dashoffset:0;stroke-opacity:1"
         inkscape:connector-curvature="0" />
      <g
         aria-label="ASOCIACIÓN   NACIONAL   DE   ESTUDIANTES   DE   MATEMÁTICAS   ·     "
         transform="matrix(-0.04613004,0.32646505,-0.32646505,-0.04613004,346.09613,977.15942)"
         style="font-style:normal;font-weight:normal;font-size:40px;line-height:1.25;font-family:sans-serif;letter-spacing:0px;word-spacing:0px;opacity:1;fill:#21366e;fill-opacity:1;stroke:none"
         id="text972">
        <path
           inkscape:connector-curvature="0"
           d="m 715.40806,511.24627 c 3.0618,1.05179 6.65354,2.08772 9.91281,3.05535 l -0.0117,0.19164 c -3.30751,0.61637 -7.04914,1.25443 -10.21584,1.92745 l -2.91839,0.54386 0.40499,-6.6597 z m -15.12318,-12.2686 -0.43705,7.18672 7.30974,2.36807 -0.57981,9.53439 -7.54282,1.46485 -0.45453,7.47419 31.83267,-7.87427 0.51571,-8.48033 z"
           style="font-style:normal;font-variant:normal;font-weight:bold;font-stretch:normal;font-size:48px;font-family:'Source Sans Pro';-inkscape-font-specification:'Source Sans Pro Bold';fill:#21366e;fill-opacity:1"
           id="path1151" />
        <path
           inkscape:connector-curvature="0"
           d="m 695.45784,540.67658 c -1.3548,7.36442 2.30113,12.42948 7.39957,13.36741 4.34312,0.79898 7.27936,-1.10113 9.4761,-4.55264 l 2.33457,-3.67018 c 1.57211,-2.44389 2.60646,-4.35225 4.49477,-4.00486 1.74669,0.32133 2.50736,2.02304 2.06444,4.43064 -0.4516,2.4548 -1.69593,4.17811 -3.62722,5.92145 l 3.73898,4.34826 c 3.12998,-2.15731 5.23229,-5.62619 5.88364,-9.16677 1.1811,-6.42027 -2.04506,-11.69909 -7.1435,-12.63702 -4.48474,-0.82504 -7.68419,1.70993 -9.54067,4.63837 l -2.43767,3.70002 c -1.62801,2.48241 -2.56304,4.1162 -4.49856,3.76013 -1.84111,-0.33869 -2.71356,-1.96336 -2.1838,-4.84304 0.46897,-2.54922 2.31186,-5.13852 4.60835,-7.0099 l -4.03849,-4.8426 c -3.50006,2.57727 -5.79232,6.54807 -6.53051,10.56073 z"
           style="font-style:normal;font-variant:normal;font-weight:bold;font-stretch:normal;font-size:48px;font-family:'Source Sans Pro';-inkscape-font-specification:'Source Sans Pro Bold';fill:#21366e;fill-opacity:1"
           id="path1153" />
        <path
           inkscape:connector-curvature="0"
           d="m 688.05266,569.04855 c -2.62741,8.02903 1.42046,15.41422 11.13742,18.59399 9.67134,3.16484 17.07396,-0.47329 19.70137,-8.50233 2.62742,-8.02903 -1.14675,-15.32465 -10.8637,-18.50442 -9.71696,-3.17977 -17.34768,0.38373 -19.97509,8.41276 z m 5.79368,1.89592 c 1.32863,-4.06014 5.95105,-5.37577 11.92721,-3.42013 5.93053,1.9407 8.65286,5.65982 7.32422,9.71995 -1.32863,4.06014 -5.72295,5.45041 -11.65349,3.50971 -5.97615,-1.95564 -8.92658,-5.74939 -7.59794,-9.80953 z"
           style="font-style:normal;font-variant:normal;font-weight:bold;font-stretch:normal;font-size:48px;font-family:'Source Sans Pro';-inkscape-font-specification:'Source Sans Pro Bold';fill:#21366e;fill-opacity:1"
           id="path1155" />
        <path
           inkscape:connector-curvature="0"
           d="m 675.85744,598.7332 c -1.78676,3.66795 -1.87621,7.46861 -0.29273,11.12314 l 5.60964,-1.43198 c -0.79452,-2.09558 -1.07677,-4.47554 0.0373,-6.76262 2.01798,-4.14263 6.68715,-5.17847 12.46957,-2.3617 5.65297,2.75371 7.56954,7.47816 5.6987,11.31873 -0.98797,2.02816 -2.67304,3.07604 -4.6613,3.86945 l 2.41672,5.34183 c 2.86676,-0.95277 6.02227,-3.04631 7.788,-6.67111 3.46842,-7.12015 1.03717,-15.93955 -8.28376,-20.48002 -9.45038,-4.60353 -17.31376,-1.06587 -20.78217,6.05428 z"
           style="font-style:normal;font-variant:normal;font-weight:bold;font-stretch:normal;font-size:48px;font-family:'Source Sans Pro';-inkscape-font-specification:'Source Sans Pro Bold';fill:#21366e;fill-opacity:1"
           id="path1157" />
        <path
           inkscape:connector-curvature="0"
           d="m 669.18787,612.26752 -3.67908,6.02093 26.70505,16.31808 3.67908,-6.02093 z"
           style="font-style:normal;font-variant:normal;font-weight:bold;font-stretch:normal;font-size:48px;font-family:'Source Sans Pro';-inkscape-font-specification:'Source Sans Pro Bold';fill:#21366e;fill-opacity:1"
           id="path1159" />
        <path
           inkscape:connector-curvature="0"
           d="m 669.82394,640.04375 c 1.9835,2.55864 4.41885,5.39464 6.61363,7.99119 l -0.11484,0.15386 c -3.1038,-1.29845 -6.58251,-2.81684 -9.59962,-3.99069 l -2.73865,-1.14569 3.99089,-5.34681 z m -5.91797,-18.55281 -4.30671,5.76994 4.81381,5.98893 -5.71357,7.65478 -7.11073,-2.91162 -4.47899,6.00074 30.93714,10.87273 5.08193,-6.80852 z"
           style="font-style:normal;font-variant:normal;font-weight:bold;font-stretch:normal;font-size:48px;font-family:'Source Sans Pro';-inkscape-font-specification:'Source Sans Pro Bold';fill:#21366e;fill-opacity:1"
           id="path1161" />
        <path
           inkscape:connector-curvature="0"
           d="m 635.58049,655.10423 c -2.82177,2.94686 -4.06791,6.53853 -3.67642,10.50209 l 5.77893,0.34998 c -0.11642,-2.23812 0.3418,-4.59054 2.10126,-6.42799 3.18695,-3.32822 7.94936,-2.8883 12.595,1.56014 4.54163,4.34886 4.92347,9.43294 1.9689,12.51848 -1.56028,1.62944 -3.4849,2.11251 -5.62048,2.26067 l 0.66949,5.82472 c 3.02078,-0.0316 6.66496,-1.06114 9.45354,-3.97333 5.47756,-5.72038 5.8565,-14.8609 -1.63199,-22.03153 -7.5925,-7.27022 -16.16066,-6.30361 -21.63823,-0.58323 z"
           style="font-style:normal;font-variant:normal;font-weight:bold;font-stretch:normal;font-size:48px;font-family:'Source Sans Pro';-inkscape-font-specification:'Source Sans Pro Bold';fill:#21366e;fill-opacity:1"
           id="path1163" />
        <path
           inkscape:connector-curvature="0"
           d="m 625.23323,665.77813 -5.33875,4.61355 20.46282,23.67937 5.33875,-4.61355 z"
           style="font-style:normal;font-variant:normal;font-weight:bold;font-stretch:normal;font-size:48px;font-family:'Source Sans Pro';-inkscape-font-specification:'Source Sans Pro Bold';fill:#21366e;fill-opacity:1"
           id="path1165" />
        <path
           inkscape:connector-curvature="0"
           d="m 603.57558,682.09133 c -6.93812,4.81988 -8.16329,13.15206 -2.33014,21.54876 5.80576,8.35728 13.90473,9.9198 20.84285,5.09992 6.93812,-4.81988 8.3276,-12.91553 2.49445,-21.31223 -5.83314,-8.3967 -14.06904,-10.15633 -21.00716,-5.33645 z m 3.47798,5.00649 c 3.50848,-2.43733 7.98907,-0.69897 11.57659,4.46519 3.56014,5.12475 3.48864,9.73319 -0.0198,12.17052 -3.50848,2.43732 -7.85214,0.89607 -11.41228,-4.22867 -3.58752,-5.16417 -3.65295,-9.96972 -0.14447,-12.40704 z m 15.86711,21.99907 -4.38519,10.88011 5.98641,0.0896 3.02712,-9.85998 z"
           style="font-style:normal;font-variant:normal;font-weight:bold;font-stretch:normal;font-size:48px;font-family:'Source Sans Pro';-inkscape-font-specification:'Source Sans Pro Bold';fill:#21366e;fill-opacity:1"
           id="path1167"
           sodipodi:nodetypes="ssssscsccccccccc" />
        <path
           inkscape:connector-curvature="0"
           d="m 587.06548,693.56965 -6.01531,2.99574 4.94297,9.92526 c 1.64765,3.30842 4.02489,6.78973 5.82335,9.75493 l -0.17187,0.0856 -5.78839,-4.73176 -14.25869,-10.32643 -6.48794,3.23111 13.95157,28.01416 6.01531,-2.99573 -4.92156,-9.8823 c -1.64766,-3.30842 -4.13189,-7.00456 -5.86615,-9.84086 l 0.17186,-0.0856 5.83119,4.81769 14.23729,10.28347 6.48795,-3.23112 z"
           style="font-style:normal;font-variant:normal;font-weight:bold;font-stretch:normal;font-size:48px;font-family:'Source Sans Pro';-inkscape-font-specification:'Source Sans Pro Bold';fill:#21366e;fill-opacity:1"
           id="path1169" />
        <path
           inkscape:connector-curvature="0"
           d="m 530.92713,716.03384 -6.60056,1.26136 2.08125,10.89092 c 0.69374,3.63031 2.04335,7.62396 2.97493,10.96448 l -0.18858,0.036 -4.29678,-6.11823 -10.94313,-13.79107 -7.11917,1.36047 5.87434,30.73974 6.60056,-1.26136 -2.07224,-10.84378 c -0.69375,-3.6303 -2.0884,-7.8597 -2.99296,-11.05877 l 0.18859,-0.036 4.3148,6.21252 10.93411,13.74393 7.11918,-1.36047 z"
           style="font-style:normal;font-variant:normal;font-weight:bold;font-stretch:normal;font-size:48px;font-family:'Source Sans Pro';-inkscape-font-specification:'Source Sans Pro Bold';fill:#21366e;fill-opacity:1"
           id="path1171" />
        <path
           inkscape:connector-curvature="0"
           d="m 493.06833,737.6064 c -0.6845,3.16423 -1.29093,6.85286 -1.86863,10.2033 l -0.19168,0.011 c -1.00099,-3.2121 -2.07455,-6.85275 -3.11524,-9.91835 l -0.88322,-2.8342 6.66112,-0.38085 z m 10.40536,-16.46079 -7.18826,0.41099 -1.49219,7.53746 -9.53642,0.54525 -2.34156,-7.31828 -7.47579,0.42743 11.56246,30.68603 8.48215,-0.48497 z"
           style="font-style:normal;font-variant:normal;font-weight:bold;font-stretch:normal;font-size:48px;font-family:'Source Sans Pro';-inkscape-font-specification:'Source Sans Pro Bold';fill:#21366e;fill-opacity:1"
           id="path1173" />
        <path
           inkscape:connector-curvature="0"
           d="m 459.51578,721.07988 c -4.07155,-0.26243 -7.62228,1.096 -10.40341,3.94702 l 3.45221,4.64767 c 1.63779,-1.52982 3.73297,-2.69347 6.2717,-2.52984 4.59846,0.29639 7.32748,4.22405 6.91378,10.64273 -0.40445,6.27498 -4.04929,9.83993 -8.31245,9.56515 -2.25133,-0.1451 -3.85993,-1.30697 -5.34802,-2.84588 l -4.02646,4.26185 c 1.96869,2.29137 5.10244,4.41733 9.12609,4.67667 7.9036,0.50942 15.14239,-5.08456 15.80926,-15.4311 0.67614,-10.49023 -5.5791,-16.42486 -13.4827,-16.93427 z"
           style="font-style:normal;font-variant:normal;font-weight:bold;font-stretch:normal;font-size:48px;font-family:'Source Sans Pro';-inkscape-font-specification:'Source Sans Pro Bold';fill:#21366e;fill-opacity:1"
           id="path1175" />
        <path
           inkscape:connector-curvature="0"
           d="m 444.68653,720.03417 -6.96699,-1.11723 -4.95534,30.9012 6.96699,1.11723 z"
           style="font-style:normal;font-variant:normal;font-weight:bold;font-stretch:normal;font-size:48px;font-family:'Source Sans Pro';-inkscape-font-specification:'Source Sans Pro Bold';fill:#21366e;fill-opacity:1"
           id="path1177" />
        <path
           inkscape:connector-curvature="0"
           d="m 418.26579,713.94448 c -8.15193,-2.21691 -15.32237,2.20023 -18.00534,12.06592 -2.67037,9.81938 1.33844,17.028 9.49037,19.24491 8.15193,2.21692 15.24679,-1.92232 17.92976,-11.78801 2.68298,-9.86569 -1.26286,-17.3059 -9.41479,-19.52282 z m -1.59971,5.88236 c 4.12229,1.12106 5.67061,5.67082 4.02052,11.73845 -1.6375,6.02131 -5.21379,8.92872 -9.33607,7.80766 -4.12229,-1.12105 -5.73359,-5.43922 -4.09609,-11.46053 1.65009,-6.06763 5.28936,-9.20663 9.41164,-8.08558 z"
           style="font-style:normal;font-variant:normal;font-weight:bold;font-stretch:normal;font-size:48px;font-family:'Source Sans Pro';-inkscape-font-specification:'Source Sans Pro Bold';fill:#21366e;fill-opacity:1"
           id="path1179" />
        <path
           inkscape:connector-curvature="0"
           d="m 399.66613,709.27109 -6.15886,-2.68828 -4.43565,10.16213 c -1.47855,3.38737 -2.62122,7.44509 -3.7398,10.72772 l -0.17597,-0.0768 -0.0888,-7.47577 -1.23799,-17.56169 -6.64277,-2.8995 -12.51966,28.68271 6.15886,2.68827 4.41644,-10.11813 c 1.47855,-3.38738 2.71723,-7.66505 3.77821,-10.8157 l 0.17597,0.0768 0.0504,7.56376 1.25719,17.5177 6.64278,2.89949 z"
           style="font-style:normal;font-variant:normal;font-weight:bold;font-stretch:normal;font-size:48px;font-family:'Source Sans Pro';-inkscape-font-specification:'Source Sans Pro Bold';fill:#21366e;fill-opacity:1"
           id="path1181" />
        <path
           inkscape:connector-curvature="0"
           d="m 355.41438,705.06282 c -2.35629,2.22009 -4.94526,4.91657 -7.31899,7.35062 l -0.16418,-0.0995 c 0.99432,-3.21417 2.17156,-6.82263 3.05018,-9.93855 l 0.87735,-2.83602 5.70542,3.45887 z m 17.89861,-7.67261 -6.15693,-3.7326 -5.49886,5.3668 -8.16819,-4.95191 2.21517,-7.35752 -6.4032,-3.8819 -7.85093,31.83843 7.26517,4.40447 z"
           style="font-style:normal;font-variant:normal;font-weight:bold;font-stretch:normal;font-size:48px;font-family:'Source Sans Pro';-inkscape-font-specification:'Source Sans Pro Bold';fill:#21366e;fill-opacity:1"
           id="path1183" />
        <path
           inkscape:connector-curvature="0"
           d="m 345.77339,679.96349 -15.33347,-11.94983 -3.65871,4.6947 9.76799,7.61248 -15.57903,19.9903 5.56548,4.33734 z"
           style="font-style:normal;font-variant:normal;font-weight:bold;font-stretch:normal;font-size:48px;font-family:'Source Sans Pro';-inkscape-font-specification:'Source Sans Pro Bold';fill:#21366e;fill-opacity:1"
           id="path1185" />
        <path
           inkscape:connector-curvature="0"
           d="m 306.97619,644.42033 -5.63267,-7.29435 c -5.60334,-7.25637 -13.34756,-9.0389 -21.85764,-2.46745 -8.51008,6.57146 -8.51612,14.33871 -2.67808,21.89901 l 5.39798,6.99042 z m -8.8335,-2.09365 -15.72845,12.14545 -0.82143,-1.06376 c -3.25639,-4.21705 -3.60373,-8.43658 2.32293,-13.01313 5.92667,-4.57655 10.14913,-3.34937 13.40552,0.86768 z"
           style="font-style:normal;font-variant:normal;font-weight:bold;font-stretch:normal;font-size:48px;font-family:'Source Sans Pro';-inkscape-font-specification:'Source Sans Pro Bold';fill:#21366e;fill-opacity:1"
           id="path1187" />
        <path
           inkscape:connector-curvature="0"
           d="m 289.39651,620.36546 -10.15067,-17.30688 -5.1341,3.01121 6.58094,11.22049 -6.2106,3.64258 -5.39103,-9.19169 -5.09269,2.98692 5.39102,9.19169 -5.42392,3.18119 -6.3381,-10.80645 -5.1341,3.01121 9.90783,16.89283 z"
           style="font-style:normal;font-variant:normal;font-weight:bold;font-stretch:normal;font-size:48px;font-family:'Source Sans Pro';-inkscape-font-specification:'Source Sans Pro Bold';fill:#21366e;fill-opacity:1"
           id="path1189" />
        <path
           inkscape:connector-curvature="0"
           d="m 265.19418,570.62058 -5.59125,-19.2692 -5.71622,1.65865 3.62495,12.49271 -6.91478,2.00643 -2.96952,-10.23388 -5.67012,1.64527 2.96951,10.23388 -6.03891,1.75229 -3.49119,-12.03173 -5.71622,1.65865 5.45749,18.80821 z"
           style="font-style:normal;font-variant:normal;font-weight:bold;font-stretch:normal;font-size:48px;font-family:'Source Sans Pro';-inkscape-font-specification:'Source Sans Pro Bold';fill:#21366e;fill-opacity:1"
           id="path1191" />
        <path
           inkscape:connector-curvature="0"
           d="m 256.8768,534.9198 c -1.22908,-7.38644 -6.38897,-10.90725 -11.50266,-10.05634 -4.35611,0.72484 -6.47167,3.50986 -7.36441,7.50255 l -0.94805,4.24519 c -0.64782,2.83275 -0.97192,4.97906 -2.86588,5.29421 -1.75191,0.29152 -3.04571,-1.05032 -3.44752,-3.46512 -0.4097,-2.46214 0.17478,-4.5058 1.39851,-6.8018 l -4.99436,-2.81845 c -2.21033,3.09275 -3.00838,7.06968 -2.41747,10.62085 1.0715,6.43946 5.89988,10.30739 11.01356,9.45649 4.49816,-0.74848 6.64546,-4.22002 7.39601,-7.60513 l 1.03487,-4.3083 c 0.68729,-2.88798 1.01131,-4.74232 2.95262,-5.06534 1.84661,-0.30728 3.21934,0.9241 3.69995,3.81239 0.42545,2.55685 -0.4276,5.61839 -1.95126,8.15894 l 5.44406,3.18156 c 2.41564,-3.61351 3.22172,-8.12704 2.55203,-12.1517 z"
           style="font-style:normal;font-variant:normal;font-weight:bold;font-stretch:normal;font-size:48px;font-family:'Source Sans Pro';-inkscape-font-specification:'Source Sans Pro Bold';fill:#21366e;fill-opacity:1"
           id="path1193" />
        <path
           inkscape:connector-curvature="0"
           d="m 254.07371,512.18939 -0.33856,-7.09593 -25.31521,1.20786 -0.40948,-8.58224 -5.94523,0.28366 1.15752,24.2604 5.94524,-0.28366 -0.40948,-8.58224 z"
           style="font-style:normal;font-variant:normal;font-weight:bold;font-stretch:normal;font-size:48px;font-family:'Source Sans Pro';-inkscape-font-specification:'Source Sans Pro Bold';fill:#21366e;fill-opacity:1"
           id="path1195" />
        <path
           inkscape:connector-curvature="0"
           d="m 255.08186,480.71389 c 0.6604,-8.03691 -3.53442,-12.668 -14.01111,-13.52888 l -16.74357,-1.37584 -0.5582,6.7931 17.46115,1.4348 c 6.12336,0.50317 8.06317,2.68536 7.77621,6.17759 -0.28696,3.49223 -2.54911,5.23282 -8.67247,4.72965 l -17.46115,-1.4348 -0.58178,7.08014 16.74357,1.37584 c 10.47669,0.86088 15.38302,-3.16685 16.04735,-11.2516 z"
           style="font-style:normal;font-variant:normal;font-weight:bold;font-stretch:normal;font-size:48px;font-family:'Source Sans Pro';-inkscape-font-specification:'Source Sans Pro Bold';fill:#21366e;fill-opacity:1"
           id="path1197" />
        <path
           inkscape:connector-curvature="0"
           d="m 256.36799,461.98056 2.02757,-8.9902 c 2.01701,-8.94337 -1.54779,-16.04566 -12.03635,-18.41116 -10.48856,-2.3655 -16.47585,2.5825 -18.57734,11.90046 l -1.94309,8.6156 z m -4.01969,-8.13979 -19.38511,-4.37195 0.29569,-1.31107 c 1.17219,-5.19746 4.20119,-8.15554 11.50573,-6.50814 7.30453,1.6474 9.05156,5.68263 7.87938,10.88009 z"
           style="font-style:normal;font-variant:normal;font-weight:bold;font-stretch:normal;font-size:48px;font-family:'Source Sans Pro';-inkscape-font-specification:'Source Sans Pro Bold';fill:#21366e;fill-opacity:1"
           id="path1199" />
        <path
           inkscape:connector-curvature="0"
           d="m 263.57144,432.79053 2.24109,-6.69064 -29.67549,-9.94007 -2.24109,6.69064 z"
           style="font-style:normal;font-variant:normal;font-weight:bold;font-stretch:normal;font-size:48px;font-family:'Source Sans Pro';-inkscape-font-specification:'Source Sans Pro Bold';fill:#21366e;fill-opacity:1"
           id="path1201" />
        <path
           inkscape:connector-curvature="0"
           d="m 257.26003,404.8684 c -2.5011,-2.05559 -5.50425,-4.28153 -8.21978,-6.32727 l 0.0779,-0.17549 c 3.31434,0.57851 7.04301,1.28842 10.24521,1.76463 l 2.92442,0.51045 -2.70707,6.09814 z m 9.88142,16.78054 2.9213,-6.58073 -6.02107,-4.77354 3.87559,-8.73043 7.5791,1.26382 3.03815,-6.84396 -32.5772,-3.74814 -3.44714,7.76527 z"
           style="font-style:normal;font-variant:normal;font-weight:bold;font-stretch:normal;font-size:48px;font-family:'Source Sans Pro';-inkscape-font-specification:'Source Sans Pro Bold';fill:#21366e;fill-opacity:1"
           id="path1203" />
        <path
           inkscape:connector-curvature="0"
           d="m 280.62514,392.25153 3.51916,-5.72486 -9.446,-5.80661 c -3.14867,-1.93553 -7.0079,-3.63174 -10.10293,-5.19624 l 0.10055,-0.16357 7.41539,0.95236 17.5631,1.21787 3.79566,-6.17466 -26.66145,-16.38923 -3.51916,5.72486 9.40512,5.78147 c 3.14866,1.93554 7.21235,3.75743 10.18471,5.24652 l -0.10055,0.16356 -7.49718,-1.00263 -17.5222,-1.19273 -3.79567,6.17466 z"
           style="font-style:normal;font-variant:normal;font-weight:bold;font-stretch:normal;font-size:48px;font-family:'Source Sans Pro';-inkscape-font-specification:'Source Sans Pro Bold';fill:#21366e;fill-opacity:1"
           id="path1205" />
        <path
           inkscape:connector-curvature="0"
           d="m 301.32635,361.48299 4.47896,-5.51414 -19.67207,-15.97899 5.41712,-6.66913 -4.61995,-3.75264 -15.3132,18.85239 4.61995,3.75264 5.41712,-6.66913 z"
           style="font-style:normal;font-variant:normal;font-weight:bold;font-stretch:normal;font-size:48px;font-family:'Source Sans Pro';-inkscape-font-specification:'Source Sans Pro Bold';fill:#21366e;fill-opacity:1"
           id="path1207" />
        <path
           inkscape:connector-curvature="0"
           d="m 314.13724,345.97586 14.39925,-13.97233 -4.1449,-4.27154 -9.3354,9.05861 -5.01399,-5.16719 7.64745,-7.42071 -4.11148,-4.2371 -7.64744,7.42071 -4.37889,-4.51268 8.99091,-8.72435 -4.1449,-4.27155 -14.05476,13.63806 z"
           style="font-style:normal;font-variant:normal;font-weight:bold;font-stretch:normal;font-size:48px;font-family:'Source Sans Pro';-inkscape-font-specification:'Source Sans Pro Bold';fill:#21366e;fill-opacity:1"
           id="path1209" />
        <path
           inkscape:connector-curvature="0"
           d="m 341.82924,322.37361 c 5.95185,-4.54374 6.64771,-10.75151 3.50204,-14.87202 -2.67964,-3.51006 -6.13099,-4.07584 -10.07712,-2.99573 l -4.19515,1.14943 c -2.80647,0.75357 -4.85482,1.47188 -6.01988,-0.0542 -1.07768,-1.41166 -0.49758,-3.18307 1.44822,-4.66852 1.98395,-1.51459 4.06347,-1.95474 6.66522,-1.94814 l 0.1527,-5.73271 c -3.76765,-0.50548 -7.65553,0.65094 -10.51699,2.83543 -5.1888,3.96121 -6.34659,10.03851 -3.20092,14.15902 2.76703,3.62453 6.8399,3.89699 10.18256,2.97564 l 4.29155,-1.10226 c 2.87375,-0.74454 4.66406,-1.32624 5.85825,0.23803 1.13593,1.48796 0.69038,3.27743 -1.63694,5.05415 -2.06026,1.57283 -5.16498,2.25215 -8.12322,2.09498 l -0.26306,6.30008 c 4.32393,0.44312 8.68974,-0.95738 11.93274,-3.43314 z"
           style="font-style:normal;font-variant:normal;font-weight:bold;font-stretch:normal;font-size:48px;font-family:'Source Sans Pro';-inkscape-font-specification:'Source Sans Pro Bold';fill:#21366e;fill-opacity:1"
           id="path1211" />
        <path
           inkscape:connector-curvature="0"
           d="m 381.04861,297.33781 8.50657,-3.54585 c 8.46226,-3.52737 12.19417,-10.54329 8.05735,-20.46762 -4.13681,-9.92433 -11.63618,-11.94663 -20.45288,-8.27151 l -8.15213,3.3981 z m 4.31516,-7.98709 -7.64573,-18.34228 1.24054,-0.5171 c 4.91786,-2.04994 9.0829,-1.28993 11.96389,5.62166 2.881,6.91158 0.5997,10.67068 -4.31816,12.72062 z"
           style="font-style:normal;font-variant:normal;font-weight:bold;font-stretch:normal;font-size:48px;font-family:'Source Sans Pro';-inkscape-font-specification:'Source Sans Pro Bold';fill:#21366e;fill-opacity:1"
           id="path1213" />
        <path
           inkscape:connector-curvature="0"
           d="m 408.74134,286.55584 19.3549,-5.28695 -1.56838,-5.74165 -12.54827,3.42767 -1.89723,-6.94554 10.27939,-2.8079 -1.55573,-5.69535 -10.27939,2.80791 -1.65692,-6.06577 12.08524,-3.30119 -1.56838,-5.74164 -18.89187,5.16047 z"
           style="font-style:normal;font-variant:normal;font-weight:bold;font-stretch:normal;font-size:48px;font-family:'Source Sans Pro';-inkscape-font-specification:'Source Sans Pro Bold';fill:#21366e;fill-opacity:1"
           id="path1215" />
        <path
           inkscape:connector-curvature="0"
           d="m 462.73902,276.16242 6.33598,0.0148 0.0267,-11.47197 c 0.007,-3.07199 -0.55822,-7.63332 -0.88717,-10.6581 l 0.192,4.5e-4 2.47866,7.4458 4.43613,11.96237 3.88799,0.009 4.49184,-11.94157 2.56133,-7.43405 0.192,4.5e-4 c -0.34304,3.02321 -0.92967,7.58185 -0.93683,10.65384 l -0.0267,11.47197 6.43198,0.015 0.0729,-31.29591 -7.67998,-0.0179 -4.97642,13.90844 c -0.62825,1.82254 -1.16095,3.83731 -1.78942,5.75585 l -0.192,-4.5e-4 c -0.61952,-1.92145 -1.19082,-3.93879 -1.81057,-5.76424 l -5.00755,-13.9317 -7.72798,-0.018 z"
           style="font-style:normal;font-variant:normal;font-weight:bold;font-stretch:normal;font-size:48px;font-family:'Source Sans Pro';-inkscape-font-specification:'Source Sans Pro Bold';fill:#21366e;fill-opacity:1"
           id="path1217" />
        <path
           inkscape:connector-curvature="0"
           d="m 509.32349,262.67213 c 1.28173,-2.97288 2.58797,-6.47538 3.80081,-9.65158 l 0.1902,0.0262 c 0.3629,3.34482 0.71439,7.12416 1.14449,10.33288 l 0.3202,2.95132 -6.60957,-0.91059 z m -13.38382,14.14576 7.13263,0.98264 2.91743,-7.10834 9.46263,1.30364 0.88663,7.63243 7.41793,1.02195 -5.42913,-32.33956 -8.41651,-1.15953 z"
           style="font-style:normal;font-variant:normal;font-weight:bold;font-stretch:normal;font-size:48px;font-family:'Source Sans Pro';-inkscape-font-specification:'Source Sans Pro Bold';fill:#21366e;fill-opacity:1"
           id="path1219" />
        <path
           inkscape:connector-curvature="0"
           d="m 530.49309,282.2124 6.88123,1.76508 6.29703,-24.54925 8.32257,2.13478 1.47884,-5.76535 -23.52636,-6.03465 -1.47885,5.76536 8.32257,2.13478 z"
           style="font-style:normal;font-variant:normal;font-weight:bold;font-stretch:normal;font-size:48px;font-family:'Source Sans Pro';-inkscape-font-specification:'Source Sans Pro Bold';fill:#21366e;fill-opacity:1"
           id="path1221" />
        <path
           inkscape:connector-curvature="0"
           d="m 548.7923,287.8563 18.69946,7.27282 2.15749,-5.54721 -12.12334,-4.71515 2.60987,-6.71034 9.93129,3.8626 2.14009,-5.50247 -9.93129,-3.8626 2.27928,-5.86036 11.67598,4.54116 2.15749,-5.54721 -18.25211,-7.09883 z"
           style="font-style:normal;font-variant:normal;font-weight:bold;font-stretch:normal;font-size:48px;font-family:'Source Sans Pro';-inkscape-font-specification:'Source Sans Pro Bold';fill:#21366e;fill-opacity:1"
           id="path1223" />
        <path
           inkscape:connector-curvature="0"
           d="m 573.32158,297.57668 5.52181,3.10717 5.62586,-9.99782 c 1.50651,-2.67724 3.24075,-6.93374 4.4309,-9.73392 l 0.16733,0.0942 -1.47332,7.70798 -1.97089,12.60529 3.38838,1.90667 9.75162,-8.227 5.86567,-5.23636 0.16732,0.0942 c -1.77579,2.47063 -4.51399,6.16219 -6.0205,8.83943 l -5.62587,9.99782 5.60548,3.15425 15.34755,-27.27439 -6.69311,-3.76627 -11.13504,9.70671 c -1.43831,1.28361 -2.8871,2.78161 -4.37249,4.14888 l -0.16732,-0.0942 c 0.39775,-1.97928 0.88441,-4.01869 1.23509,-5.91431 l 2.43401,-14.60286 -6.73493,-3.78981 z"
           style="font-style:normal;font-variant:normal;font-weight:bold;font-stretch:normal;font-size:48px;font-family:'Source Sans Pro';-inkscape-font-specification:'Source Sans Pro Bold';fill:#21366e;fill-opacity:1"
           id="path1225" />
        <path
           inkscape:connector-curvature="0"
           d="m 620.13253,308.11565 c 2.57239,-1.96563 5.42528,-4.38117 8.03705,-6.55782 l 0.15306,0.11591 c -1.32003,3.09469 -2.86261,6.56274 -4.05744,9.5716 l -1.16474,2.73061 -5.31889,-4.02803 z m -18.59357,5.78863 5.73981,4.34679 6.0223,-4.77199 7.61481,5.76674 -2.96106,7.09028 5.9694,4.52067 11.08791,-30.86068 -6.77298,-5.12921 z m 30.3815,-17.93544 12.12822,0.85513 -1.90893,-6.00117 -10.60039,0.40182 z"
           style="font-style:normal;font-variant:normal;font-weight:bold;font-stretch:normal;font-size:48px;font-family:'Source Sans Pro';-inkscape-font-specification:'Source Sans Pro Bold';fill:#21366e;fill-opacity:1"
           id="path1227"
           sodipodi:nodetypes="ccccccccccccccccccccc" />
        <path
           inkscape:connector-curvature="0"
           d="m 628.91267,335.56754 5.14305,4.90059 17.48319,-18.34819 6.22032,5.92707 4.1059,-4.30905 -17.58368,-16.75473 -4.10591,4.30905 6.22032,5.92706 z"
           style="font-style:normal;font-variant:normal;font-weight:bold;font-stretch:normal;font-size:48px;font-family:'Source Sans Pro';-inkscape-font-specification:'Source Sans Pro Bold';fill:#21366e;fill-opacity:1"
           id="path1229" />
        <path
           inkscape:connector-curvature="0"
           d="m 642.5524,349.94758 4.64111,5.31482 23.57318,-20.58507 -4.64111,-5.31481 z"
           style="font-style:normal;font-variant:normal;font-weight:bold;font-stretch:normal;font-size:48px;font-family:'Source Sans Pro';-inkscape-font-specification:'Source Sans Pro Bold';fill:#21366e;fill-opacity:1"
           id="path1231" />
        <path
           inkscape:connector-curvature="0"
           d="m 658.2232,370.70886 c 2.38142,3.31289 5.6848,5.19456 9.65314,5.53417 l 1.40042,-5.6176 c -2.22169,-0.29464 -4.45072,-1.17515 -5.93561,-3.24084 -2.68959,-3.74162 -1.38656,-8.34338 3.83612,-12.09761 5.10575,-3.67018 10.17397,-3.11626 12.66746,0.35253 1.31678,1.83184 1.43991,3.81234 1.1952,5.93902 l 5.84897,0.4065 c 0.52115,-2.97566 0.17503,-6.74664 -2.17837,-10.02056 -4.62275,-6.43091 -13.54001,-8.47426 -21.95866,-2.42266 -8.53557,6.13565 -9.15142,14.73614 -4.52867,21.16705 z"
           style="font-style:normal;font-variant:normal;font-weight:bold;font-stretch:normal;font-size:48px;font-family:'Source Sans Pro';-inkscape-font-specification:'Source Sans Pro Bold';fill:#21366e;fill-opacity:1"
           id="path1233" />
        <path
           inkscape:connector-curvature="0"
           d="m 685.38502,382.68491 c 3.15294,-0.73479 6.74648,-1.76445 10.02204,-2.67544 l 0.0919,0.16858 c -2.47523,2.27877 -5.30679,4.80646 -7.63261,7.05844 l -2.18403,2.01068 -3.19356,-5.85806 z m -19.32976,-2.36423 3.44629,6.32164 7.45137,-1.87538 4.57206,8.38671 -5.61335,5.24692 3.58413,6.57451 22.79112,-23.57727 -4.06661,-7.45953 z"
           style="font-style:normal;font-variant:normal;font-weight:bold;font-stretch:normal;font-size:48px;font-family:'Source Sans Pro';-inkscape-font-specification:'Source Sans Pro Bold';fill:#21366e;fill-opacity:1"
           id="path1235" />
        <path
           inkscape:connector-curvature="0"
           d="m 683.67892,417.25993 c 2.75718,6.9619 8.54285,9.31701 13.36263,7.40819 4.10574,-1.62602 5.58729,-4.79414 5.61911,-8.88529 l 0.0327,-4.34964 c 0.0367,-2.90566 -0.0985,-5.07208 1.68658,-5.77905 1.65122,-0.65395 3.1986,0.3853 4.09999,2.66131 0.91906,2.32064 0.7781,4.44155 0.0654,6.94379 l 5.47593,1.70336 c 1.50939,-3.4889 1.45196,-7.54471 0.12639,-10.89177 -2.40369,-6.06936 -7.93839,-8.83362 -12.75817,-6.92481 -4.23962,1.67905 -5.60762,5.52497 -5.62839,8.99223 l -0.10428,4.42961 c -0.0636,2.96796 0.0101,4.84894 -1.81958,5.57359 -1.74047,0.68929 -3.34176,-0.22535 -4.41989,-2.94764 -0.95441,-2.40989 -0.76529,-5.58242 0.18913,-8.38689 l -5.99203,-1.96362 c -1.60041,4.04122 -1.43781,8.62328 0.0645,12.41663 z"
           style="font-style:normal;font-variant:normal;font-weight:bold;font-stretch:normal;font-size:48px;font-family:'Source Sans Pro';-inkscape-font-specification:'Source Sans Pro Bold';fill:#21366e;fill-opacity:1"
           id="path1237" />
        <path
           inkscape:connector-curvature="0"
           d="m 707.51648,459.61917 c 0.43505,2.40904 2.64864,3.86279 5.10491,3.41921 2.5035,-0.45211 4.06879,-2.58829 3.63374,-4.99732 -0.43505,-2.40903 -2.64864,-3.86278 -5.15214,-3.41068 -2.45627,0.44358 -4.02155,2.57976 -3.58651,4.98879 z"
           style="font-style:normal;font-variant:normal;font-weight:bold;font-stretch:normal;font-size:48px;font-family:'Source Sans Pro';-inkscape-font-specification:'Source Sans Pro Bold';fill:#21366e;fill-opacity:1"
           id="path1239" />
      </g>
      <path
         inkscape:connector-curvature="0"
         style="opacity:1;fill:none;fill-opacity:1;stroke:none;stroke-width:0.60746;stroke-linecap:round;stroke-linejoin:round;stroke-miterlimit:4;stroke-dasharray:none;stroke-opacity:1"
         d="m 234.56059,1110.3287 a 73.557708,73.557705 0 0 1 -73.55771,73.5578 73.557708,73.557705 0 0 1 -73.557707,-73.5578 73.557708,73.557705 0 0 1 73.557707,-73.5577 73.557708,73.557705 0 0 1 73.55771,73.5577 z"
         id="path976" />
    </g>
    <path
       d="m 11.346276,5.1376995 a 1.656,1.656 0 0 0 -0.95,-0.949 2.766,2.766 0 0 0 -0.9280002,-0.172 c -0.527,-0.024 -0.685,-0.03 -2.02,-0.03 -1.335,0 -1.493,0.006 -2.02,0.03 a 2.766,2.766 0 0 0 -0.929,0.172 1.656,1.656 0 0 0 -0.949,0.95 2.766,2.766 0 0 0 -0.172,0.928 c -0.024,0.527 -0.03,0.685 -0.03,2.02 0,1.335 0.006,1.493 0.03,2.0199995 a 2.766,2.766 0 0 0 0.172,0.929 1.656,1.656 0 0 0 0.95,0.949 2.766,2.766 0 0 0 0.928,0.172 c 0.527,0.024 0.685,0.029 2.02,0.029 1.335,0 1.493,-0.005 2.02,-0.03 a 2.766,2.766 0 0 0 0.9290002,-0.171 1.656,1.656 0 0 0 0.949,-0.95 2.766,2.766 0 0 0 0.172,-0.928 c 0.024,-0.5269995 0.029,-0.6849995 0.029,-2.0199995 0,-1.335 -0.005,-1.493 -0.03,-2.02 a 2.766,2.766 0 0 0 -0.171,-0.929 z M 7.4482758,10.654699 A 2.568,2.568 0 1 1 10.016276,8.0866995 2.568,2.568 0 0 1 7.4482758,10.654699 Z M 10.117276,6.0176995 a 0.6,0.6 0 1 1 0.6,-0.6 0.6,0.6 0 0 1 -0.6,0.6 z m -1.0020002,2.069 a 1.667,1.667 0 1 1 -1.667,-1.667 1.667,1.667 0 0 1 1.667,1.667 z m -1.667,-9.6 a 9.6,9.6 0 1 0 9.6000002,9.6 9.6,9.6 0 0 0 -9.6000002,-9.6 z M 12.418276,10.147699 a 3.67,3.67 0 0 1 -0.233,1.214 2.556,2.556 0 0 1 -1.462,1.462 3.67,3.67 0 0 1 -1.2130002,0.233 c -0.534,0.024 -0.704,0.03 -2.062,0.03 -1.358,0 -1.528,-0.006 -2.062,-0.03 a 3.67,3.67 0 0 1 -1.213,-0.233 2.556,2.556 0 0 1 -1.462,-1.462 3.67,3.67 0 0 1 -0.233,-1.213 c -0.024,-0.5339995 -0.03,-0.7039995 -0.03,-2.0619995 0,-1.358 0.006,-1.528 0.03,-2.062 a 3.67,3.67 0 0 1 0.232,-1.213 2.556,2.556 0 0 1 1.463,-1.463 3.67,3.67 0 0 1 1.213,-0.232 c 0.534,-0.024 0.704,-0.03 2.062,-0.03 1.358,0 1.528,0.006 2.062,0.03 a 3.67,3.67 0 0 1 1.2130002,0.232 2.556,2.556 0 0 1 1.462,1.463 3.67,3.67 0 0 1 0.233,1.213 c 0.024,0.534 0.03,0.704 0.03,2.062 0,1.358 -0.006,1.528 -0.03,2.0619995 z"
       id="path2"
       style="fill:none" />
  </g>
</svg>
