<?xml version="1.0" encoding="UTF-8" standalone="no"?>
<!-- Created with Inkscape (http://www.inkscape.org/) -->

<svg
   version="1.1"
   id="svg1"
   width="616.41199"
   height="313.73199"
   viewBox="0 0 616.41199 313.73199"
   sodipodi:docname="ENEM.svg"
   inkscape:version="1.3.2 (091e20ef0f, 2023-11-25)"
   xmlns:inkscape="http://www.inkscape.org/namespaces/inkscape"
   xmlns:sodipodi="http://sodipodi.sourceforge.net/DTD/sodipodi-0.dtd"
   xmlns="http://www.w3.org/2000/svg"
   xmlns:svg="http://www.w3.org/2000/svg">
  <defs
     id="defs1">
    <clipPath
       clipPathUnits="userSpaceOnUse"
       id="clipPath2">
      <path
         d="M 0,595.276 H 595.276 V 0 H 0 Z"
         transform="translate(-338.29691,-270.9062)"
         id="path2" />
    </clipPath>
    <clipPath
       clipPathUnits="userSpaceOnUse"
       id="clipPath4">
      <path
         d="M 0,595.276 H 595.276 V 0 H 0 Z"
         transform="translate(-340.22461,-261.60841)"
         id="path4" />
    </clipPath>
    <clipPath
       clipPathUnits="userSpaceOnUse"
       id="clipPath6">
      <path
         d="M 0,595.276 H 595.276 V 0 H 0 Z"
         transform="translate(-361.55661,-261.69341)"
         id="path6" />
    </clipPath>
    <clipPath
       clipPathUnits="userSpaceOnUse"
       id="clipPath8">
      <path
         d="M 0,595.276 H 595.276 V 0 H 0 Z"
         transform="translate(-361.55661,-261.69341)"
         id="path8" />
    </clipPath>
    <clipPath
       clipPathUnits="userSpaceOnUse"
       id="clipPath10">
      <path
         d="M 0,595.276 H 595.276 V 0 H 0 Z"
         transform="translate(-376.56051,-262.59371)"
         id="path10" />
    </clipPath>
    <clipPath
       clipPathUnits="userSpaceOnUse"
       id="clipPath12">
      <path
         d="M 0,595.276 H 595.276 V 0 H 0 Z"
         transform="translate(-396.82911,-261.69341)"
         id="path12" />
    </clipPath>
    <clipPath
       clipPathUnits="userSpaceOnUse"
       id="clipPath14">
      <path
         d="M 0,595.276 H 595.276 V 0 H 0 Z"
         transform="translate(-396.82911,-261.69341)"
         id="path14" />
    </clipPath>
    <clipPath
       clipPathUnits="userSpaceOnUse"
       id="clipPath16">
      <path
         d="M 0,595.276 H 595.276 V 0 H 0 Z"
         transform="translate(-416.73441,-259.25201)"
         id="path16" />
    </clipPath>
    <clipPath
       clipPathUnits="userSpaceOnUse"
       id="clipPath18">
      <path
         d="M 0,595.276 H 595.276 V 0 H 0 Z"
         transform="translate(-416.73441,-259.25201)"
         id="path18" />
    </clipPath>
    <clipPath
       clipPathUnits="userSpaceOnUse"
       id="clipPath20">
      <path
         d="M 0,595.276 H 595.276 V 0 H 0 Z"
         transform="translate(-432.10061,-261.69341)"
         id="path20" />
    </clipPath>
    <clipPath
       clipPathUnits="userSpaceOnUse"
       id="clipPath22">
      <path
         d="M 0,595.276 H 595.276 V 0 H 0 Z"
         transform="translate(-432.10061,-261.69341)"
         id="path22" />
    </clipPath>
    <clipPath
       clipPathUnits="userSpaceOnUse"
       id="clipPath24">
      <path
         d="M 0,595.276 H 595.276 V 0 H 0 Z"
         transform="translate(-463.41601,-246.97561)"
         id="path24" />
    </clipPath>
    <clipPath
       clipPathUnits="userSpaceOnUse"
       id="clipPath26">
      <path
         d="M 0,595.276 H 595.276 V 0 H 0 Z"
         transform="translate(-481.09471,-269.9414)"
         id="path26" />
    </clipPath>
    <clipPath
       clipPathUnits="userSpaceOnUse"
       id="clipPath28">
      <path
         d="M 0,595.276 H 595.276 V 0 H 0 Z"
         transform="translate(-481.09471,-269.9414)"
         id="path28" />
    </clipPath>
    <clipPath
       clipPathUnits="userSpaceOnUse"
       id="clipPath30">
      <path
         d="M 0,595.276 H 595.276 V 0 H 0 Z"
         transform="translate(-498.68851,-246.97561)"
         id="path30" />
    </clipPath>
    <clipPath
       clipPathUnits="userSpaceOnUse"
       id="clipPath32">
      <path
         d="M 0,595.276 H 595.276 V 0 H 0 Z"
         transform="translate(-511.25981,-270.3701)"
         id="path32" />
    </clipPath>
    <clipPath
       clipPathUnits="userSpaceOnUse"
       id="clipPath34">
      <path
         d="M 0,595.276 H 595.276 V 0 H 0 Z"
         transform="translate(-139.14651,-189.36331)"
         id="path34" />
    </clipPath>
    <clipPath
       clipPathUnits="userSpaceOnUse"
       id="clipPath36">
      <path
         d="M 0,595.276 H 595.276 V 0 H 0 Z"
         transform="translate(-185.4229,-189.36331)"
         id="path36" />
    </clipPath>
    <clipPath
       clipPathUnits="userSpaceOnUse"
       id="clipPath38">
      <path
         d="M 0,595.276 H 595.276 V 0 H 0 Z"
         transform="translate(-233.01271,-234.6836)"
         id="path38" />
    </clipPath>
    <clipPath
       clipPathUnits="userSpaceOnUse"
       id="clipPath40">
      <path
         d="M 0,595.276 H 595.276 V 0 H 0 Z"
         id="path40" />
    </clipPath>
    <clipPath
       clipPathUnits="userSpaceOnUse"
       id="clipPath42">
      <path
         d="M 0,595.276 H 595.276 V 0 H 0 Z"
         transform="translate(-326.23541,-189.36331)"
         id="path42" />
    </clipPath>
    <clipPath
       clipPathUnits="userSpaceOnUse"
       id="clipPath44">
      <path
         d="M 0,595.276 H 595.276 V 0 H 0 Z"
         transform="translate(-371.13281,-189.36331)"
         id="path44" />
    </clipPath>
    <clipPath
       clipPathUnits="userSpaceOnUse"
       id="clipPath46">
      <path
         d="M 0,595.276 H 595.276 V 0 H 0 Z"
         transform="translate(-423.41411,-189.36331)"
         id="path46" />
    </clipPath>
    <clipPath
       clipPathUnits="userSpaceOnUse"
       id="clipPath48">
      <path
         d="M 0,595.276 H 595.276 V 0 H 0 Z"
         transform="translate(-481.48051,-189.36331)"
         id="path48" />
    </clipPath>
    <clipPath
       clipPathUnits="userSpaceOnUse"
       id="clipPath50">
      <path
         d="M 0,595.276 H 595.276 V 0 H 0 Z"
         transform="translate(-140.7778,-322.51561)"
         id="path50" />
    </clipPath>
    <clipPath
       clipPathUnits="userSpaceOnUse"
       id="clipPath52">
      <path
         d="M 0,595.276 H 595.276 V 0 H 0 Z"
         transform="translate(-86.883805,-278.70211)"
         id="path52" />
    </clipPath>
    <clipPath
       clipPathUnits="userSpaceOnUse"
       id="clipPath54">
      <path
         d="M 0,595.276 H 595.276 V 0 H 0 Z"
         transform="translate(-140.7192,-347.78421)"
         id="path54" />
    </clipPath>
    <clipPath
       clipPathUnits="userSpaceOnUse"
       id="clipPath56">
      <path
         d="M 0,595.276 H 595.276 V 0 H 0 Z"
         transform="translate(-207.12111,-269.873)"
         id="path56" />
    </clipPath>
    <clipPath
       clipPathUnits="userSpaceOnUse"
       id="clipPath58">
      <path
         d="M 0,595.276 H 595.276 V 0 H 0 Z"
         transform="translate(-119.0991,-199.2539)"
         id="path58" />
    </clipPath>
    <clipPath
       clipPathUnits="userSpaceOnUse"
       id="clipPath60">
      <path
         d="M 0,595.276 H 595.276 V 0 H 0 Z"
         transform="translate(-275.15871,-246.4619)"
         id="path60" />
    </clipPath>
    <clipPath
       clipPathUnits="userSpaceOnUse"
       id="clipPath62">
      <path
         d="M 0,595.276 H 595.276 V 0 H 0 Z"
         transform="translate(-184.269,-405.89401)"
         id="path62" />
    </clipPath>
    <clipPath
       clipPathUnits="userSpaceOnUse"
       id="clipPath64">
      <path
         d="M 0,595.276 H 595.276 V 0 H 0 Z"
         transform="translate(-194.7061,-300.32321)"
         id="path64" />
    </clipPath>
  </defs>
  <sodipodi:namedview
     id="namedview1"
     pagecolor="#505050"
     bordercolor="#ffffff"
     borderopacity="1"
     inkscape:showpageshadow="0"
     inkscape:pageopacity="0"
     inkscape:pagecheckerboard="1"
     inkscape:deskcolor="#d1d1d1"
     inkscape:zoom="0.9197414"
     inkscape:cx="408.26693"
     inkscape:cy="289.21173"
     inkscape:window-width="1920"
     inkscape:window-height="928"
     inkscape:window-x="0"
     inkscape:window-y="44"
     inkscape:window-maximized="1"
     inkscape:current-layer="layer-MC0">
    <inkscape:page
       x="0"
       y="0"
       inkscape:label="1"
       id="page1"
       width="616.41199"
       height="313.73199"
       margin="252.48399 101.14533 252.48534 101.14494"
       bleed="0"
       inkscape:export-filename="ENEM.png"
       inkscape:export-xdpi="78.334373"
       inkscape:export-ydpi="78.334373" />
  </sodipodi:namedview>
  <g
     id="layer-MC0"
     inkscape:groupmode="layer"
     inkscape:label="Capa 1"
     transform="translate(12.500267,12.499315)">
    <rect
       style="fill:#ffffff;fill-opacity:1;stroke:#ffffff;stroke-width:25;stroke-linecap:round;stroke-linejoin:round;stroke-miterlimit:0;stroke-dasharray:none;stroke-opacity:1;paint-order:markers stroke fill"
       id="rect64"
       width="591.41199"
       height="288.73199"
       x="-0.0002679342"
       y="0.00068774325" />
    <path
       id="path21"
       d="m 0,0 c -0.728,0 -1.505,-0.35 -2.332,-1.049 -1.185,-0.972 -2.233,-2.419 -3.147,-4.339 -0.914,-1.922 -1.37,-3.66 -1.37,-5.216 0,-0.772 0.197,-1.386 0.589,-1.842 0.393,-0.458 0.846,-0.686 1.36,-0.686 1.241,0 2.596,0.928 4.066,2.784 1.969,2.456 2.953,4.978 2.953,7.564 0,0.972 -0.188,1.678 -0.566,2.12 C 1.174,-0.221 0.657,0 0,0 Z M 6.144,0.9 2.783,-10.798 2.397,-12.383 c -0.028,-0.142 -0.043,-0.264 -0.043,-0.364 0,-0.186 0.058,-0.35 0.172,-0.492 0.086,-0.101 0.201,-0.151 0.343,-0.151 0.143,0 0.334,0.093 0.577,0.28 0.443,0.328 1.042,1.013 1.799,2.055 l 0.577,-0.407 c -0.784,-1.199 -1.598,-2.109 -2.44,-2.73 -0.842,-0.621 -1.619,-0.933 -2.333,-0.933 -0.485,0 -0.853,0.122 -1.103,0.364 -0.249,0.242 -0.373,0.6 -0.373,1.072 0,0.571 0.128,1.313 0.384,2.227 l 0.364,1.307 c -1.511,-1.971 -2.896,-3.349 -4.151,-4.135 -0.913,-0.557 -1.806,-0.835 -2.676,-0.835 -0.843,0 -1.566,0.347 -2.172,1.039 -0.607,0.692 -0.91,1.646 -0.91,2.86 0,1.829 0.546,3.76 1.638,5.795 1.092,2.035 2.486,3.66 4.183,4.874 C -2.453,0.414 -1.212,0.9 -0.043,0.9 0.672,0.9 1.26,0.715 1.724,0.344 2.187,-0.027 2.54,-0.643 2.783,-1.499 l 0.62,1.972 z"
       style="fill:none;stroke:#000000;stroke-width:0.5;stroke-linecap:butt;stroke-linejoin:miter;stroke-miterlimit:10;stroke-dasharray:none;stroke-opacity:1"
       transform="matrix(1.3333333,0,0,-1.3333333,576.13413,444.7768)"
       clip-path="url(#clipPath22)"
       sodipodi:insensitive="true" />
    <g
       id="g64"
       style="stroke:none;stroke-width:0;stroke-linecap:round;stroke-linejoin:round;stroke-dasharray:none;stroke-opacity:1;paint-order:markers stroke fill"
       transform="translate(-101.14514,-252.48444)">
      <path
         id="path1"
         d="m 0,0 -1.755,-7.369 h -0.641 c 0.099,0.856 0.149,1.492 0.149,1.906 0,1.128 -0.495,2.127 -1.487,2.999 -0.992,0.871 -2.366,1.307 -4.12,1.307 -3.568,0 -6.486,-1.679 -8.754,-5.034 -1.798,-2.657 -2.698,-5.635 -2.698,-8.935 0,-2.186 0.557,-4.07 1.67,-5.656 1.114,-1.584 2.832,-2.377 5.158,-2.377 0.572,0 1.114,0.053 1.627,0.16 0.514,0.107 1.284,0.34 2.311,0.696 l 1.713,6.021 c 0.243,0.828 0.363,1.484 0.363,1.97 0,0.415 -0.148,0.729 -0.448,0.943 -0.486,0.343 -1.271,0.515 -2.355,0.515 h -0.471 l 0.192,0.665 H 0.172 L 0,-12.854 c -0.885,-0.016 -1.529,-0.119 -1.937,-0.311 -0.406,-0.193 -0.752,-0.525 -1.038,-0.996 -0.2,-0.315 -0.512,-1.222 -0.941,-2.721 l -1.733,-5.914 c -1.571,-0.671 -2.837,-1.121 -3.8,-1.35 -0.963,-0.227 -1.98,-0.341 -3.05,-0.341 -2.455,0 -4.445,0.464 -5.971,1.392 -1.527,0.928 -2.658,2.153 -3.392,3.674 -0.736,1.522 -1.103,3.038 -1.103,4.553 0,2.014 0.424,3.931 1.274,5.753 0.848,1.82 1.908,3.363 3.178,4.627 1.27,1.263 2.654,2.259 4.153,2.988 2.053,1 4.215,1.5 6.484,1.5 1.655,0 3.161,-0.279 4.516,-0.836 0.528,-0.215 0.921,-0.321 1.177,-0.321 0.286,0 0.529,0.064 0.729,0.192 0.199,0.129 0.463,0.45 0.791,0.965 z"
         style="fill:#000000;fill-opacity:1;fill-rule:nonzero;stroke:none;stroke-width:0;stroke-linecap:round;stroke-linejoin:round;stroke-miterlimit:10;stroke-dasharray:none;stroke-opacity:1;paint-order:markers stroke fill"
         transform="matrix(1.3333333,0,0,-1.3333333,451.06253,432.49307)"
         clip-path="url(#clipPath2)" />
      <path
         id="path3"
         d="M 0,0 5.949,0.985 3.466,-7.413 c 2.012,3.441 3.839,5.85 5.479,7.221 0.928,0.785 1.685,1.177 2.27,1.177 0.385,0 0.684,-0.114 0.898,-0.342 0.214,-0.229 0.322,-0.558 0.322,-0.986 0,-0.758 -0.193,-1.478 -0.579,-2.164 -0.27,-0.514 -0.67,-0.772 -1.198,-0.772 -0.257,0 -0.481,0.087 -0.675,0.258 -0.192,0.172 -0.31,0.436 -0.352,0.793 -0.014,0.214 -0.065,0.357 -0.15,0.428 -0.1,0.086 -0.207,0.129 -0.321,0.129 -0.2,0 -0.386,-0.043 -0.557,-0.129 C 8.304,-1.957 7.847,-2.407 7.233,-3.149 6.277,-4.278 5.243,-5.735 4.13,-7.521 3.659,-8.277 3.244,-9.135 2.889,-10.092 2.417,-11.405 2.146,-12.197 2.075,-12.469 l -0.556,-2.164 h -2.632 l 3.188,10.711 c 0.357,1.244 0.535,2.13 0.535,2.657 0,0.202 -0.086,0.372 -0.256,0.515 -0.228,0.186 -0.529,0.278 -0.9,0.278 -0.243,0 -0.684,-0.049 -1.327,-0.149 z"
         style="fill:#000000;fill-opacity:1;fill-rule:nonzero;stroke:none;stroke-width:0;stroke-linecap:round;stroke-linejoin:round;stroke-miterlimit:10;stroke-dasharray:none;stroke-opacity:1;paint-order:markers stroke fill"
         transform="matrix(1.3333333,0,0,-1.3333333,453.6328,444.89013)"
         clip-path="url(#clipPath4)" />
      <path
         id="path5"
         d="m 0,0 c -0.729,0 -1.506,-0.35 -2.333,-1.049 -1.185,-0.972 -2.233,-2.419 -3.146,-4.339 -0.914,-1.922 -1.371,-3.66 -1.371,-5.216 0,-0.772 0.197,-1.386 0.589,-1.842 0.393,-0.458 0.846,-0.686 1.36,-0.686 1.241,0 2.596,0.928 4.066,2.784 1.97,2.456 2.954,4.978 2.954,7.564 0,0.972 -0.189,1.678 -0.567,2.12 C 1.173,-0.221 0.656,0 0,0 M 6.143,0.9 2.782,-10.798 2.396,-12.383 c -0.028,-0.142 -0.042,-0.264 -0.042,-0.364 0,-0.186 0.057,-0.35 0.171,-0.492 0.086,-0.101 0.201,-0.151 0.343,-0.151 0.143,0 0.335,0.093 0.577,0.28 0.443,0.328 1.042,1.013 1.799,2.055 l 0.577,-0.407 c -0.784,-1.199 -1.597,-2.109 -2.44,-2.73 -0.842,-0.621 -1.619,-0.933 -2.332,-0.933 -0.486,0 -0.854,0.122 -1.103,0.364 -0.25,0.242 -0.374,0.6 -0.374,1.072 0,0.571 0.128,1.313 0.385,2.227 l 0.363,1.307 c -1.511,-1.971 -2.896,-3.349 -4.151,-4.135 -0.913,-0.557 -1.806,-0.835 -2.676,-0.835 -0.843,0 -1.566,0.347 -2.172,1.039 -0.607,0.692 -0.909,1.646 -0.909,2.86 0,1.829 0.545,3.76 1.637,5.795 1.092,2.035 2.486,3.66 4.183,4.874 1.314,0.971 2.555,1.457 3.725,1.457 0.714,0 1.302,-0.185 1.766,-0.556 0.464,-0.371 0.816,-0.987 1.059,-1.843 l 0.62,1.972 z"
         style="fill:#000000;fill-opacity:1;fill-rule:nonzero;stroke:none;stroke-width:0;stroke-linecap:round;stroke-linejoin:round;stroke-dasharray:none;stroke-opacity:1;paint-order:markers stroke fill"
         transform="matrix(1.3333333,0,0,-1.3333333,482.07547,444.7768)"
         clip-path="url(#clipPath6)" />
      <path
         id="path7"
         d="m 0,0 c -0.729,0 -1.506,-0.35 -2.333,-1.049 -1.185,-0.972 -2.233,-2.419 -3.146,-4.339 -0.914,-1.922 -1.371,-3.66 -1.371,-5.216 0,-0.772 0.197,-1.386 0.589,-1.842 0.393,-0.458 0.846,-0.686 1.36,-0.686 1.241,0 2.596,0.928 4.066,2.784 1.97,2.456 2.954,4.978 2.954,7.564 0,0.972 -0.189,1.678 -0.567,2.12 C 1.173,-0.221 0.656,0 0,0 Z M 6.143,0.9 2.782,-10.798 2.396,-12.383 c -0.028,-0.142 -0.042,-0.264 -0.042,-0.364 0,-0.186 0.057,-0.35 0.171,-0.492 0.086,-0.101 0.201,-0.151 0.343,-0.151 0.143,0 0.335,0.093 0.577,0.28 0.443,0.328 1.042,1.013 1.799,2.055 l 0.577,-0.407 c -0.784,-1.199 -1.597,-2.109 -2.44,-2.73 -0.842,-0.621 -1.619,-0.933 -2.332,-0.933 -0.486,0 -0.854,0.122 -1.103,0.364 -0.25,0.242 -0.374,0.6 -0.374,1.072 0,0.571 0.128,1.313 0.385,2.227 l 0.363,1.307 c -1.511,-1.971 -2.896,-3.349 -4.151,-4.135 -0.913,-0.557 -1.806,-0.835 -2.676,-0.835 -0.843,0 -1.566,0.347 -2.172,1.039 -0.607,0.692 -0.909,1.646 -0.909,2.86 0,1.829 0.545,3.76 1.637,5.795 1.092,2.035 2.486,3.66 4.183,4.874 1.314,0.971 2.555,1.457 3.725,1.457 0.714,0 1.302,-0.185 1.766,-0.556 0.464,-0.371 0.816,-0.987 1.059,-1.843 l 0.62,1.972 z"
         style="fill:none;stroke:none;stroke-width:0;stroke-linecap:round;stroke-linejoin:round;stroke-miterlimit:10;stroke-dasharray:none;stroke-opacity:1;paint-order:markers stroke fill"
         transform="matrix(1.3333333,0,0,-1.3333333,482.07547,444.7768)"
         clip-path="url(#clipPath8)" />
      <path
         id="path9"
         d="m 0,0 -2.29,-7.863 c 2.141,3.214 3.784,5.328 4.933,6.342 C 3.791,-0.507 4.894,0 5.95,0 c 0.57,0 1.041,-0.193 1.412,-0.578 0.371,-0.386 0.557,-0.879 0.557,-1.479 0,-0.699 -0.165,-1.621 -0.492,-2.764 l -2.098,-7.262 c -0.242,-0.844 -0.364,-1.357 -0.364,-1.543 0,-0.157 0.047,-0.289 0.139,-0.396 0.093,-0.108 0.19,-0.161 0.289,-0.161 0.128,0 0.293,0.072 0.493,0.214 0.612,0.486 1.284,1.222 2.011,2.206 l 0.536,-0.32 c -1.071,-1.529 -2.083,-2.621 -3.04,-3.278 -0.67,-0.443 -1.27,-0.664 -1.798,-0.664 -0.427,0 -0.767,0.129 -1.017,0.385 -0.25,0.258 -0.374,0.6 -0.374,1.029 0,0.557 0.192,1.507 0.578,2.848 l 2.012,6.942 c 0.242,0.858 0.364,1.529 0.364,2.014 0,0.229 -0.075,0.414 -0.224,0.557 -0.151,0.143 -0.332,0.215 -0.547,0.215 -0.314,0 -0.699,-0.136 -1.156,-0.406 -0.842,-0.515 -1.722,-1.37 -2.643,-2.562 -0.92,-1.193 -1.894,-2.71 -2.921,-4.553 -0.543,-0.985 -0.992,-2.056 -1.349,-3.213 l -0.856,-2.849 h -2.59 l 3.147,10.797 c 0.371,1.3 0.556,2.079 0.556,2.337 0,0.255 -0.103,0.481 -0.31,0.673 -0.207,0.194 -0.453,0.29 -0.739,0.29 -0.142,0 -0.385,-0.029 -0.728,-0.085 l -0.663,-0.086 -0.107,0.621 z"
         style="fill:#000000;fill-opacity:1;fill-rule:nonzero;stroke:none;stroke-width:0;stroke-linecap:round;stroke-linejoin:round;stroke-miterlimit:10;stroke-dasharray:none;stroke-opacity:1;paint-order:markers stroke fill"
         transform="matrix(1.3333333,0,0,-1.3333333,502.08067,443.5764)"
         clip-path="url(#clipPath10)" />
      <path
         id="path11"
         d="m 0,0 c -0.729,0 -1.506,-0.35 -2.333,-1.049 -1.185,-0.972 -2.233,-2.419 -3.146,-4.339 -0.914,-1.922 -1.371,-3.66 -1.371,-5.216 0,-0.772 0.197,-1.386 0.589,-1.842 0.393,-0.458 0.846,-0.686 1.36,-0.686 1.241,0 2.596,0.928 4.066,2.784 1.969,2.456 2.954,4.978 2.954,7.564 0,0.972 -0.189,1.678 -0.567,2.12 C 1.173,-0.221 0.656,0 0,0 M 6.143,0.9 2.782,-10.798 2.396,-12.383 c -0.028,-0.142 -0.042,-0.264 -0.042,-0.364 0,-0.186 0.057,-0.35 0.171,-0.492 0.086,-0.101 0.201,-0.151 0.343,-0.151 0.143,0 0.335,0.093 0.577,0.28 0.443,0.328 1.042,1.013 1.799,2.055 l 0.577,-0.407 c -0.784,-1.199 -1.597,-2.109 -2.44,-2.73 -0.842,-0.621 -1.619,-0.933 -2.332,-0.933 -0.486,0 -0.854,0.122 -1.103,0.364 -0.25,0.242 -0.374,0.6 -0.374,1.072 0,0.571 0.128,1.313 0.385,2.227 l 0.363,1.307 c -1.511,-1.971 -2.896,-3.349 -4.151,-4.135 -0.913,-0.557 -1.806,-0.835 -2.676,-0.835 -0.843,0 -1.566,0.347 -2.172,1.039 -0.607,0.692 -0.909,1.646 -0.909,2.86 0,1.829 0.545,3.76 1.637,5.795 1.092,2.035 2.486,3.66 4.183,4.874 1.314,0.971 2.555,1.457 3.725,1.457 0.714,0 1.302,-0.185 1.766,-0.556 0.463,-0.371 0.816,-0.987 1.059,-1.843 l 0.62,1.972 z"
         style="fill:#000000;fill-opacity:1;fill-rule:nonzero;stroke:none;stroke-width:0;stroke-linecap:round;stroke-linejoin:round;stroke-dasharray:none;stroke-opacity:1;paint-order:markers stroke fill"
         transform="matrix(1.3333333,0,0,-1.3333333,529.10547,444.7768)"
         clip-path="url(#clipPath12)" />
      <path
         id="path13"
         d="m 0,0 c -0.729,0 -1.506,-0.35 -2.333,-1.049 -1.185,-0.972 -2.233,-2.419 -3.146,-4.339 -0.914,-1.922 -1.371,-3.66 -1.371,-5.216 0,-0.772 0.197,-1.386 0.589,-1.842 0.393,-0.458 0.846,-0.686 1.36,-0.686 1.241,0 2.596,0.928 4.066,2.784 1.969,2.456 2.954,4.978 2.954,7.564 0,0.972 -0.189,1.678 -0.567,2.12 C 1.173,-0.221 0.656,0 0,0 Z M 6.143,0.9 2.782,-10.798 2.396,-12.383 c -0.028,-0.142 -0.042,-0.264 -0.042,-0.364 0,-0.186 0.057,-0.35 0.171,-0.492 0.086,-0.101 0.201,-0.151 0.343,-0.151 0.143,0 0.335,0.093 0.577,0.28 0.443,0.328 1.042,1.013 1.799,2.055 l 0.577,-0.407 c -0.784,-1.199 -1.597,-2.109 -2.44,-2.73 -0.842,-0.621 -1.619,-0.933 -2.332,-0.933 -0.486,0 -0.854,0.122 -1.103,0.364 -0.25,0.242 -0.374,0.6 -0.374,1.072 0,0.571 0.128,1.313 0.385,2.227 l 0.363,1.307 c -1.511,-1.971 -2.896,-3.349 -4.151,-4.135 -0.913,-0.557 -1.806,-0.835 -2.676,-0.835 -0.843,0 -1.566,0.347 -2.172,1.039 -0.607,0.692 -0.909,1.646 -0.909,2.86 0,1.829 0.545,3.76 1.637,5.795 1.092,2.035 2.486,3.66 4.183,4.874 1.314,0.971 2.555,1.457 3.725,1.457 0.714,0 1.302,-0.185 1.766,-0.556 0.463,-0.371 0.816,-0.987 1.059,-1.843 l 0.62,1.972 z"
         style="fill:none;stroke:none;stroke-width:0;stroke-linecap:round;stroke-linejoin:round;stroke-miterlimit:10;stroke-dasharray:none;stroke-opacity:1;paint-order:markers stroke fill"
         transform="matrix(1.3333333,0,0,-1.3333333,529.10547,444.7768)"
         clip-path="url(#clipPath14)" />
      <path
         id="path15"
         d="m 0,0 c 0,0.742 -0.211,1.335 -0.632,1.777 -0.421,0.444 -0.96,0.664 -1.616,0.664 -1.455,0 -2.964,-1.191 -4.526,-3.578 -1.563,-2.385 -2.345,-4.67 -2.345,-6.854 0,-0.872 0.189,-1.532 0.568,-1.983 0.378,-0.449 0.831,-0.674 1.36,-0.674 1.197,0 2.696,1.292 4.494,3.877 C -0.899,-4.187 0,-1.929 0,0 M 6.399,12.254 0.47,-8.099 c -0.327,-1.099 -0.491,-1.828 -0.491,-2.185 0,-0.114 0.049,-0.222 0.149,-0.321 0.1,-0.101 0.2,-0.15 0.299,-0.15 0.157,0 0.336,0.07 0.536,0.214 0.399,0.286 1.056,0.978 1.969,2.078 l 0.599,-0.364 c -0.828,-1.143 -1.666,-2.071 -2.514,-2.785 -0.85,-0.714 -1.639,-1.072 -2.366,-1.072 -0.4,0 -0.724,0.136 -0.974,0.408 -0.25,0.271 -0.374,0.664 -0.374,1.177 0,0.658 0.171,1.536 0.513,2.636 l 0.663,2.142 c -1.655,-2.584 -3.167,-4.369 -4.537,-5.356 -0.942,-0.671 -1.84,-1.007 -2.697,-1.007 -0.885,0 -1.651,0.386 -2.301,1.158 -0.648,0.771 -0.973,1.828 -0.973,3.17 0,1.714 0.546,3.543 1.637,5.484 1.092,1.942 2.537,3.521 4.334,4.735 1.412,0.987 2.711,1.479 3.896,1.479 0.613,0 1.145,-0.129 1.594,-0.386 0.45,-0.257 0.896,-0.679 1.338,-1.264 l 1.691,5.999 c 0.113,0.428 0.214,0.771 0.3,1.028 0.142,0.457 0.214,0.836 0.214,1.135 0,0.244 -0.086,0.443 -0.257,0.6 -0.242,0.2 -0.557,0.3 -0.943,0.3 -0.256,0 -0.691,-0.043 -1.305,-0.129 v 0.644 z"
         style="fill:#000000;fill-opacity:1;fill-rule:nonzero;stroke:none;stroke-width:0;stroke-linecap:round;stroke-linejoin:round;stroke-dasharray:none;stroke-opacity:1;paint-order:markers stroke fill"
         transform="matrix(1.3333333,0,0,-1.3333333,555.64587,448.032)"
         clip-path="url(#clipPath16)" />
      <path
         id="path17"
         d="m 0,0 c 0,0.742 -0.211,1.335 -0.632,1.777 -0.421,0.444 -0.96,0.664 -1.616,0.664 -1.455,0 -2.964,-1.191 -4.526,-3.578 -1.563,-2.385 -2.345,-4.67 -2.345,-6.854 0,-0.872 0.189,-1.532 0.568,-1.983 0.378,-0.449 0.831,-0.674 1.36,-0.674 1.197,0 2.696,1.292 4.494,3.877 C -0.899,-4.187 0,-1.929 0,0 Z M 6.399,12.254 0.47,-8.099 c -0.327,-1.099 -0.491,-1.828 -0.491,-2.185 0,-0.114 0.049,-0.222 0.149,-0.321 0.1,-0.101 0.2,-0.15 0.299,-0.15 0.157,0 0.336,0.07 0.536,0.214 0.399,0.286 1.056,0.978 1.969,2.078 l 0.599,-0.364 c -0.828,-1.143 -1.666,-2.071 -2.514,-2.785 -0.85,-0.714 -1.639,-1.072 -2.366,-1.072 -0.4,0 -0.724,0.136 -0.974,0.408 -0.25,0.271 -0.374,0.664 -0.374,1.177 0,0.658 0.171,1.536 0.513,2.636 l 0.663,2.142 c -1.655,-2.584 -3.167,-4.369 -4.537,-5.356 -0.942,-0.671 -1.84,-1.007 -2.697,-1.007 -0.885,0 -1.651,0.386 -2.301,1.158 -0.648,0.771 -0.973,1.828 -0.973,3.17 0,1.714 0.546,3.543 1.637,5.484 1.092,1.942 2.537,3.521 4.334,4.735 1.412,0.987 2.711,1.479 3.896,1.479 0.613,0 1.145,-0.129 1.594,-0.386 0.45,-0.257 0.896,-0.679 1.338,-1.264 l 1.691,5.999 c 0.113,0.428 0.214,0.771 0.3,1.028 0.142,0.457 0.214,0.836 0.214,1.135 0,0.244 -0.086,0.443 -0.257,0.6 -0.242,0.2 -0.557,0.3 -0.943,0.3 -0.256,0 -0.691,-0.043 -1.305,-0.129 v 0.644 z"
         style="fill:none;stroke:none;stroke-width:0;stroke-linecap:round;stroke-linejoin:round;stroke-miterlimit:10;stroke-dasharray:none;stroke-opacity:1;paint-order:markers stroke fill"
         transform="matrix(1.3333333,0,0,-1.3333333,555.64587,448.032)"
         clip-path="url(#clipPath18)" />
      <path
         id="path19"
         d="m 0,0 c -0.728,0 -1.505,-0.35 -2.332,-1.049 -1.185,-0.972 -2.233,-2.419 -3.147,-4.339 -0.914,-1.922 -1.37,-3.66 -1.37,-5.216 0,-0.772 0.197,-1.386 0.589,-1.842 0.393,-0.458 0.846,-0.686 1.36,-0.686 1.241,0 2.596,0.928 4.066,2.784 1.969,2.456 2.953,4.978 2.953,7.564 0,0.972 -0.188,1.678 -0.566,2.12 C 1.174,-0.221 0.657,0 0,0 M 6.144,0.9 2.783,-10.798 2.397,-12.383 c -0.028,-0.142 -0.043,-0.264 -0.043,-0.364 0,-0.186 0.058,-0.35 0.172,-0.492 0.086,-0.101 0.201,-0.151 0.343,-0.151 0.143,0 0.334,0.093 0.577,0.28 0.443,0.328 1.042,1.013 1.799,2.055 l 0.577,-0.407 c -0.784,-1.199 -1.598,-2.109 -2.44,-2.73 -0.842,-0.621 -1.619,-0.933 -2.333,-0.933 -0.485,0 -0.853,0.122 -1.103,0.364 -0.249,0.242 -0.373,0.6 -0.373,1.072 0,0.571 0.128,1.313 0.384,2.227 l 0.364,1.307 c -1.511,-1.971 -2.896,-3.349 -4.151,-4.135 -0.913,-0.557 -1.806,-0.835 -2.676,-0.835 -0.843,0 -1.566,0.347 -2.172,1.039 -0.607,0.692 -0.91,1.646 -0.91,2.86 0,1.829 0.546,3.76 1.638,5.795 1.092,2.035 2.486,3.66 4.183,4.874 C -2.453,0.414 -1.212,0.9 -0.043,0.9 0.672,0.9 1.26,0.715 1.724,0.344 2.187,-0.027 2.54,-0.643 2.783,-1.499 l 0.62,1.972 z"
         style="fill:#000000;fill-opacity:1;fill-rule:nonzero;stroke:none;stroke-width:0;stroke-linecap:round;stroke-linejoin:round;stroke-dasharray:none;stroke-opacity:1;paint-order:markers stroke fill"
         transform="matrix(1.3333333,0,0,-1.3333333,576.13413,444.7768)"
         clip-path="url(#clipPath20)" />
      <path
         id="path23"
         d="m 0,0 h -11.622 v 0.643 c 5.921,5.199 9.839,9.276 11.751,12.233 0.884,1.357 1.327,2.792 1.327,4.307 0,1.199 -0.368,2.173 -1.102,2.923 -0.736,0.75 -1.688,1.125 -2.858,1.125 -1.627,0 -2.961,-0.779 -4.003,-2.335 l -0.598,0.279 c 0.584,1.484 1.44,2.638 2.568,3.459 1.127,0.822 2.34,1.232 3.639,1.232 1.483,0 2.731,-0.508 3.745,-1.521 1.012,-1.014 1.519,-2.249 1.519,-3.706 0,-1.015 -0.179,-1.95 -0.535,-2.806 C 3.275,14.489 2.255,12.983 0.771,11.311 -1.47,8.754 -4.474,5.82 -8.24,2.506 h 5.864 c 0.941,0 1.716,0.193 2.322,0.579 0.607,0.386 1.045,0.907 1.317,1.563 h 0.684 z"
         style="fill:#000000;fill-opacity:1;fill-rule:nonzero;stroke:none;stroke-width:0;stroke-linecap:round;stroke-linejoin:round;stroke-miterlimit:10;stroke-dasharray:none;stroke-opacity:1;paint-order:markers stroke fill"
         transform="matrix(1.3333333,0,0,-1.3333333,617.888,464.40053)"
         clip-path="url(#clipPath24)" />
      <path
         id="path25"
         d="m 0,0 c -0.671,0 -1.348,-0.26 -2.033,-0.781 -0.685,-0.522 -1.391,-1.612 -2.119,-3.268 -0.728,-1.656 -1.426,-3.791 -2.098,-6.405 -0.855,-3.414 -1.284,-6.32 -1.284,-8.72 0,-1.2 0.257,-2.097 0.771,-2.688 0.513,-0.594 1.142,-0.889 1.883,-0.889 0.699,0 1.299,0.234 1.798,0.707 1.312,1.242 2.44,3.363 3.382,6.361 1.527,4.9 2.29,8.885 2.29,11.956 0,1.286 -0.257,2.228 -0.77,2.828 C 1.306,-0.299 0.699,0 0,0 m -0.021,0.9 c 1.469,0 2.708,-0.614 3.713,-1.841 1.006,-1.229 1.509,-3.172 1.509,-5.829 0,-2.27 -0.374,-4.591 -1.124,-6.962 -0.749,-2.372 -1.801,-4.428 -3.157,-6.17 -1.07,-1.371 -2.197,-2.357 -3.381,-2.956 -0.699,-0.344 -1.498,-0.515 -2.397,-0.515 -1.498,0 -2.751,0.614 -3.757,1.843 -1.006,1.228 -1.508,3.177 -1.508,5.847 0,2.629 0.506,5.272 1.519,7.929 1.184,3.098 2.697,5.455 4.538,7.068 1.198,1.057 2.547,1.586 4.045,1.586"
         style="fill:#000000;fill-opacity:1;fill-rule:nonzero;stroke:none;stroke-width:0;stroke-linecap:round;stroke-linejoin:round;stroke-dasharray:none;stroke-opacity:1;paint-order:markers stroke fill"
         transform="matrix(1.3333333,0,0,-1.3333333,641.4596,433.77947)"
         clip-path="url(#clipPath26)" />
      <path
         id="path27"
         d="m 0,0 c -0.671,0 -1.348,-0.26 -2.033,-0.781 -0.685,-0.522 -1.391,-1.612 -2.119,-3.268 -0.728,-1.656 -1.426,-3.791 -2.098,-6.405 -0.855,-3.414 -1.284,-6.32 -1.284,-8.72 0,-1.2 0.257,-2.097 0.771,-2.688 0.513,-0.594 1.142,-0.889 1.883,-0.889 0.699,0 1.299,0.234 1.798,0.707 1.312,1.242 2.44,3.363 3.382,6.361 1.527,4.9 2.29,8.885 2.29,11.956 0,1.286 -0.257,2.228 -0.77,2.828 C 1.306,-0.299 0.699,0 0,0 Z m -0.021,0.9 c 1.469,0 2.708,-0.614 3.713,-1.841 1.006,-1.229 1.509,-3.172 1.509,-5.829 0,-2.27 -0.374,-4.591 -1.124,-6.962 -0.749,-2.372 -1.801,-4.428 -3.157,-6.17 -1.07,-1.371 -2.197,-2.357 -3.381,-2.956 -0.699,-0.344 -1.498,-0.515 -2.397,-0.515 -1.498,0 -2.751,0.614 -3.757,1.843 -1.006,1.228 -1.508,3.177 -1.508,5.847 0,2.629 0.506,5.272 1.519,7.929 1.184,3.098 2.697,5.455 4.538,7.068 1.198,1.057 2.547,1.586 4.045,1.586 z"
         style="fill:none;stroke:none;stroke-width:0;stroke-linecap:round;stroke-linejoin:round;stroke-miterlimit:10;stroke-dasharray:none;stroke-opacity:1;paint-order:markers stroke fill"
         transform="matrix(1.3333333,0,0,-1.3333333,641.4596,433.77947)"
         clip-path="url(#clipPath28)" />
      <path
         id="path29"
         d="m 0,0 h -11.622 v 0.643 c 5.921,5.199 9.838,9.276 11.751,12.233 0.884,1.357 1.326,2.792 1.326,4.307 0,1.199 -0.367,2.173 -1.102,2.923 -0.735,0.75 -1.687,1.125 -2.857,1.125 -1.627,0 -2.961,-0.779 -4.003,-2.335 l -0.599,0.279 c 0.585,1.484 1.441,2.638 2.569,3.459 1.127,0.822 2.34,1.232 3.639,1.232 1.483,0 2.731,-0.508 3.745,-1.521 1.012,-1.014 1.519,-2.249 1.519,-3.706 0,-1.015 -0.179,-1.95 -0.535,-2.806 C 3.275,14.489 2.255,12.983 0.771,11.311 -1.47,8.754 -4.474,5.82 -8.24,2.506 h 5.864 c 0.941,0 1.716,0.193 2.322,0.579 0.607,0.386 1.045,0.907 1.317,1.563 h 0.684 z"
         style="fill:#000000;fill-opacity:1;fill-rule:nonzero;stroke:none;stroke-width:0;stroke-linecap:round;stroke-linejoin:round;stroke-miterlimit:10;stroke-dasharray:none;stroke-opacity:1;paint-order:markers stroke fill"
         transform="matrix(1.3333333,0,0,-1.3333333,664.918,464.40053)"
         clip-path="url(#clipPath30)" />
      <path
         id="path31"
         d="M 0,0 H 7.812 L 7.021,-2.849 H 0 l -1.284,-2.892 c 1.855,-0.3 3.304,-0.879 4.345,-1.736 1.585,-1.342 2.376,-3.22 2.376,-5.634 0,-1.6 -0.293,-3.046 -0.877,-4.338 -0.586,-1.293 -1.306,-2.379 -2.163,-3.257 -0.855,-0.878 -1.776,-1.567 -2.761,-2.067 -1.326,-0.686 -2.668,-1.029 -4.024,-1.029 -1.17,0 -2.09,0.25 -2.76,0.75 -0.457,0.343 -0.686,0.779 -0.686,1.307 0,0.414 0.15,0.767 0.45,1.06 0.3,0.292 0.663,0.439 1.092,0.439 0.612,0 1.291,-0.299 2.033,-0.899 0.457,-0.386 0.834,-0.642 1.134,-0.771 0.243,-0.101 0.536,-0.15 0.878,-0.15 1.298,0 2.494,0.646 3.585,1.939 1.092,1.292 1.637,2.974 1.637,5.045 0,1.441 -0.291,2.666 -0.877,3.675 -0.585,1.007 -1.325,1.717 -2.215,2.131 -0.893,0.414 -2.087,0.707 -3.585,0.879 z"
         style="fill:#000000;fill-opacity:1;fill-rule:nonzero;stroke:none;stroke-width:0;stroke-linecap:round;stroke-linejoin:round;stroke-miterlimit:10;stroke-dasharray:none;stroke-opacity:1;paint-order:markers stroke fill"
         transform="matrix(1.3333333,0,0,-1.3333333,681.67973,433.20787)"
         clip-path="url(#clipPath32)" />
      <path
         id="path33"
         d="M 0,0 15.023,23.567 1.336,45.32 H 17.131 L 22.98,33.844 29.364,45.32 H 44.803 L 30.641,23.567 45.278,0 H 29.423 L 22.802,12.276 16.151,0 Z"
         style="fill:#000000;fill-opacity:1;fill-rule:nonzero;stroke:none;stroke-width:0;stroke-linecap:round;stroke-linejoin:round;stroke-dasharray:none;stroke-opacity:1;paint-order:markers stroke fill"
         transform="matrix(1.3333333,0,0,-1.3333333,185.52867,541.21693)"
         clip-path="url(#clipPath34)" />
      <path
         id="path35"
         d="M 0,0 15.023,23.567 1.336,45.32 H 17.131 L 22.98,33.844 29.364,45.32 H 44.803 L 30.64,23.567 45.278,0 H 29.423 L 22.802,12.276 16.152,0 Z"
         style="fill:#000000;fill-opacity:1;fill-rule:nonzero;stroke:none;stroke-width:0;stroke-linecap:round;stroke-linejoin:round;stroke-dasharray:none;stroke-opacity:1;paint-order:markers stroke fill"
         transform="matrix(1.3333333,0,0,-1.3333333,247.23053,541.21693)"
         clip-path="url(#clipPath36)" />
      <path
         id="path37"
         d="M 0,0 H 14.37 L 21.733,-29.26 29.632,0 H 43.438 L 28.711,-45.32 H 14.727 Z"
         style="fill:#000000;fill-opacity:1;fill-rule:nonzero;stroke:none;stroke-width:0;stroke-linecap:round;stroke-linejoin:round;stroke-dasharray:none;stroke-opacity:1;paint-order:markers stroke fill"
         transform="matrix(1.3333333,0,0,-1.3333333,310.6836,480.78987)"
         clip-path="url(#clipPath38)" />
      <path
         id="path39"
         d="m 279.085,234.684 h 14.312 v -45.32 h -14.312 z"
         style="fill:#000000;fill-opacity:1;fill-rule:nonzero;stroke:none;stroke-width:0;stroke-linecap:round;stroke-linejoin:round;stroke-dasharray:none;stroke-opacity:1;paint-order:markers stroke fill"
         transform="matrix(1.3333333,0,0,-1.3333333,0,793.70133)"
         clip-path="url(#clipPath40)" />
      <path
         id="path41"
         d="M 0,0 V 45.32 H 36.215 V 34.459 H 14.554 v -6.03 h 18.312 v -10.4 H 14.554 V 11.015 H 37.105 V 0 Z"
         style="fill:#000000;fill-opacity:1;fill-rule:nonzero;stroke:none;stroke-width:0;stroke-linecap:round;stroke-linejoin:round;stroke-dasharray:none;stroke-opacity:1;paint-order:markers stroke fill"
         transform="matrix(1.3333333,0,0,-1.3333333,434.98053,541.21693)"
         clip-path="url(#clipPath42)" />
      <path
         id="path43"
         d="M 0,0 V 45.32 H 13.814 L 26.521,24.244 c 0.39,-0.595 0.806,-1.435 1.247,-2.522 0.441,-1.088 0.908,-2.401 1.4,-3.939 -0.123,0.8 -0.216,1.682 -0.277,2.647 -0.062,0.964 -0.092,2.132 -0.092,3.507 V 45.32 H 42.675 V 0 H 28.799 L 16.092,20.922 c -0.39,0.615 -0.816,1.486 -1.278,2.615 -0.46,1.128 -0.927,2.42 -1.399,3.877 0.144,-0.801 0.246,-1.637 0.308,-2.508 0.061,-0.872 0.091,-2.097 0.091,-3.677 L 13.814,0 Z"
         style="fill:#000000;fill-opacity:1;fill-rule:nonzero;stroke:none;stroke-width:0;stroke-linecap:round;stroke-linejoin:round;stroke-dasharray:none;stroke-opacity:1;paint-order:markers stroke fill"
         transform="matrix(1.3333333,0,0,-1.3333333,494.84373,541.21693)"
         clip-path="url(#clipPath44)" />
      <path
         id="path45"
         d="M 0,0 V 45.32 H 36.215 V 34.459 H 14.554 v -6.03 h 18.312 v -10.4 H 14.554 V 11.015 H 37.105 V 0 Z"
         style="fill:#000000;fill-opacity:1;fill-rule:nonzero;stroke:none;stroke-width:0;stroke-linecap:round;stroke-linejoin:round;stroke-dasharray:none;stroke-opacity:1;paint-order:markers stroke fill"
         transform="matrix(1.3333333,0,0,-1.3333333,564.55213,541.21693)"
         clip-path="url(#clipPath46)" />
      <path
         id="path47"
         d="M 0,0 H -13.169 V 45.32 H 4.554 L 10.83,22.706 c 0.082,-0.308 0.246,-1.011 0.492,-2.107 0.246,-1.098 0.595,-2.611 1.046,-4.538 0.287,1.517 0.554,2.845 0.8,3.984 0.246,1.139 0.462,1.994 0.646,2.569 L 20.245,45.32 H 37.937 V 0 H 24.768 l 0.123,22.307 c 0,1.353 0.005,2.671 0.015,3.953 0.01,1.281 0.026,2.61 0.046,3.984 -0.492,-2.338 -1.087,-4.891 -1.784,-7.661 L 23.075,22.184 17.476,0 H 7.322 L 1.661,21.69 c -0.266,0.986 -0.533,2.114 -0.8,3.385 -0.266,1.272 -0.615,2.994 -1.046,5.169 0.062,-1.949 0.108,-3.62 0.139,-5.015 C -0.016,23.834 0,22.716 0,21.875 Z"
         style="fill:#000000;fill-opacity:1;fill-rule:nonzero;stroke:none;stroke-width:0;stroke-linecap:round;stroke-linejoin:round;stroke-dasharray:none;stroke-opacity:1;paint-order:markers stroke fill"
         transform="matrix(1.3333333,0,0,-1.3333333,641.974,541.21693)"
         clip-path="url(#clipPath48)" />
      <path
         id="path49"
         d="m 0,0 -0.029,-33.125 c 0,-10e-4 0,-0.002 -10e-4,-0.002 0,0 10e-4,0.002 0,0 l 10e-4,0.002 -23.178,-23.33 c 0,0 -10e-4,0 0,0 0,0 0,0 0,0 l -30.687,12.642 -8.57,20.353 c 0.029,0.121 0.041,0.173 0.197,0.836 0.23,0.991 0.459,1.982 0.692,2.973 0.085,0.365 0.162,0.733 0.266,1.094 0.349,1.215 0.693,2.432 1.041,3.647 0.087,0.304 0.174,0.608 0.286,0.904 0.364,0.961 0.721,1.924 1.083,2.886 0.111,0.296 0.223,0.592 0.348,0.882 0.396,0.916 0.797,1.83 1.197,2.744 0.151,0.344 0.298,0.69 0.462,1.027 0.543,1.121 1.093,2.238 1.642,3.356 0.067,0.139 0.14,0.275 0.217,0.409 0.64,1.116 1.133,1.964 1.797,3.066 0.264,0.437 0.255,0.437 0.503,0.838 0.79,1.275 1.211,1.919 1.898,3.005 l 20.273,8.441 c 0.001,-10e-4 0,0 0,0 L 0,0 c 0,0 0,0 0,0"
         style="fill:#0b6c2a;fill-opacity:1;fill-rule:nonzero;stroke:none;stroke-width:0;stroke-linecap:round;stroke-linejoin:round;stroke-dasharray:none;stroke-opacity:1;paint-order:markers stroke fill"
         transform="matrix(1.3333333,0,0,-1.3333333,187.70373,363.68053)"
         clip-path="url(#clipPath50)" />
      <path
         id="path51"
         d="M 0,0 V 0 L 12.668,-30.513 -1.827,-44.985 c -0.548,1.096 -1.11,2.213 -1.658,3.309 -0.048,0.097 -0.089,0.198 -0.132,0.298 -0.331,0.772 -0.663,1.543 -0.993,2.315 -0.143,0.337 -0.292,0.671 -0.419,1.014 -0.377,1.02 -0.745,2.042 -1.115,3.064 -0.05,0.139 -0.1,0.28 -0.138,0.422 -0.206,0.763 -0.407,1.528 -0.614,2.291 -0.255,0.944 -0.499,1.891 -0.811,2.819 -0.024,0.075 -0.046,0.151 -0.063,0.228 -0.14,0.637 -0.278,1.275 -0.416,1.912 -0.186,0.859 -0.363,1.721 -0.559,2.578 -0.161,0.715 -0.321,1.608 -0.457,2.417 -0.067,0.4 -0.139,0.798 -0.208,1.198 -0.069,0.399 -0.152,0.819 -0.22,1.219 -0.071,0.409 -0.21,1.274 -0.27,1.771 0,0 -0.066,0.521 -0.142,1.141 -0.023,0.207 -0.049,0.413 -0.073,0.619 -0.03,0.255 -0.061,0.511 -0.089,0.766 -0.028,0.255 -0.052,0.511 -0.082,0.767 -0.028,0.255 -0.064,0.51 -0.092,0.765 -0.048,0.432 -0.085,0.866 -0.141,1.298 -0.05,0.382 -0.063,0.768 -0.097,1.152 -0.035,0.404 -0.059,0.767 -0.086,1.171 -0.031,0.404 -0.066,0.94 -0.094,1.345 -0.029,0.405 -0.062,0.898 -0.089,1.302 -0.025,0.396 -0.06,0.79 -0.071,1.185 -0.017,0.603 -0.038,1.167 -0.045,1.77 -0.009,0.792 -0.018,1.58 -0.023,2.414 0,0 -0.001,0.094 -0.001,0.651 0,0 0,0.143 0.006,0.514 0,0 0.012,0.32 0.031,0.627 0.033,0.622 0.062,1.245 0.078,1.868 0.019,0.751 0.058,1.501 0.087,2.252 0.01,0.256 0.015,0.514 0.024,0.771 0.002,0.049 0.009,0.098 0.02,0.146 0.003,0.012 0.033,0.029 0.046,0.026 0.066,-0.018 0.133,-0.037 0.196,-0.063 C -10.099,4.176 0,0 0,0"
         style="fill:#0b6c2a;fill-opacity:1;fill-rule:nonzero;stroke:none;stroke-width:0;stroke-linecap:round;stroke-linejoin:round;stroke-dasharray:none;stroke-opacity:1;paint-order:markers stroke fill"
         transform="matrix(1.3333333,0,0,-1.3333333,115.84507,422.09853)"
         clip-path="url(#clipPath52)" />
      <path
         id="path53"
         d="m 0,0 v 0 l -30.503,-12.621 -9.825,4.093 c 0.063,0.064 0.144,0.147 0.195,0.194 0.747,0.68 1.499,1.356 2.243,2.041 0.575,0.529 1.544,1.363 2.154,1.852 0.825,0.662 1.645,1.331 2.469,1.995 0.169,0.136 0.344,0.266 0.52,0.394 0.903,0.657 1.809,1.312 2.713,1.968 0.069,0.05 0.139,0.098 0.206,0.15 0.411,0.32 0.844,0.608 1.286,0.883 1.044,0.65 2.084,1.309 3.128,1.963 0.186,0.116 0.376,0.227 0.568,0.333 1.257,0.689 2.514,1.376 3.771,2.063 0.116,0.063 0.233,0.123 0.351,0.179 1.354,0.641 2.707,1.285 4.064,1.921 0.385,0.18 0.781,0.334 1.173,0.499 1.046,0.438 2.092,0.876 3.14,1.313 0.156,0.065 0.314,0.124 0.474,0.176 1.416,0.467 2.831,0.936 4.25,1.396 0.422,0.136 0.853,0.246 1.281,0.366 0.228,0.065 0.457,0.125 0.685,0.19 0.134,0.038 0.263,0.088 0.389,0.146 0.529,0.244 1.059,0.486 1.587,0.73 0.114,0.052 0.225,0.107 0.336,0.165 0.354,0.188 0.707,0.377 1.066,0.556 0.369,0.186 0.726,0.393 1.073,0.618 C -0.841,13.8 -0.366,14.098 0,14.332 0,9.563 0,4.77 0,0"
         style="fill:#0b6c2a;fill-opacity:1;fill-rule:nonzero;stroke:none;stroke-width:0;stroke-linecap:round;stroke-linejoin:round;stroke-dasharray:none;stroke-opacity:1;paint-order:markers stroke fill"
         transform="matrix(1.3333333,0,0,-1.3333333,187.6256,329.98907)"
         clip-path="url(#clipPath54)" />
      <path
         id="path55"
         d="m 0,0 v 0 l -23.43,-23.414 -42.941,0.059 c 0,14.026 -0.005,28.877 -0.004,42.904 0.002,-0.033 0.003,-0.031 0.003,-0.031 l 23.408,23.413 30.549,-12.481 z"
         style="fill:#f3a304;fill-opacity:1;fill-rule:nonzero;stroke:none;stroke-width:0;stroke-linecap:round;stroke-linejoin:round;stroke-dasharray:none;stroke-opacity:1;paint-order:markers stroke fill"
         transform="matrix(1.3333333,0,0,-1.3333333,276.16147,433.87067)"
         clip-path="url(#clipPath56)" />
      <path
         id="path57"
         d="m 0,0 v 0 l -0.954,0.549 c -1.215,0.701 -1.353,0.788 -2.567,1.49 0,0 -0.445,0.313 -1.329,0.844 -1.221,0.788 -1.58,1.009 -2.801,1.796 0,0 -1.109,0.749 -1.453,1 -0.965,0.706 -1.712,1.237 -2.677,1.944 0,0 -0.894,0.724 -1.23,1.001 -0.884,0.731 -1.766,1.464 -2.648,2.198 -0.205,0.171 -0.407,0.346 -0.602,0.528 -1.029,0.956 -2.056,1.915 -3.082,2.873 -0.087,0.081 -0.172,0.164 -0.252,0.252 -1.007,1.102 -2.015,2.205 -3.017,3.312 -0.338,0.374 -0.661,0.762 -0.988,1.147 -0.723,0.851 -1.445,1.705 -2.167,2.557 -0.064,0.075 -0.127,0.152 -0.186,0.232 -0.897,1.217 -1.793,2.436 -2.688,3.656 -0.024,0.031 -0.109,0.154 -0.13,0.188 l 28.772,0.001 z"
         style="fill:#f3a304;fill-opacity:1;fill-rule:nonzero;stroke:none;stroke-width:0;stroke-linecap:round;stroke-linejoin:round;stroke-dasharray:none;stroke-opacity:1;paint-order:markers stroke fill"
         transform="matrix(1.3333333,0,0,-1.3333333,158.7988,528.02947)"
         clip-path="url(#clipPath58)" />
      <path
         id="path59"
         d="M 0,0 V 0 C -3.453,3.454 -23.437,23.226 -23.437,23.226 L 1.423,83.074 C 1.544,82.905 1.632,82.776 1.697,82.68 2.054,82.157 2.409,81.634 2.764,81.11 2.853,80.979 2.941,80.848 3.03,80.717 3.429,80.128 3.84,79.546 4.224,78.948 4.608,78.349 4.966,77.733 5.335,77.125 5.716,76.499 6.096,75.873 6.478,75.247 6.61,75.031 6.734,74.811 6.85,74.585 7.465,73.396 8.081,72.207 8.699,71.019 8.813,70.798 8.991,70.433 9.094,70.206 9.643,69 10.19,67.793 10.741,66.588 c 0.165,-0.359 0.309,-0.727 0.454,-1.094 0.42,-1.066 0.827,-2.137 1.254,-3.2 0.163,-0.405 0.298,-0.816 0.412,-1.235 0.419,-1.524 0.83,-3.05 1.252,-4.572 0.126,-0.458 0.214,-0.923 0.318,-1.385 0.142,-0.637 0.279,-1.274 0.419,-1.91 0.169,-0.772 0.338,-1.544 0.506,-2.316 0.033,-0.32 0.129,-0.629 0.162,-0.95 0.026,-0.259 0.065,-0.517 0.131,-0.768 0.084,-0.318 0.085,-0.65 0.178,-0.967 0.068,-0.57 0.2,-1.128 0.279,-1.696 0.047,-0.332 0.127,-0.66 0.177,-0.992 0.062,-0.41 0.106,-0.766 0.162,-1.234 l 0.068,-0.589 0.043,-0.39 0.094,-0.79 0.028,-0.293 0.069,-0.621 0.051,-0.463 0.073,-0.625 0.045,-0.413 0.031,-0.354 0.104,-1.272 0.04,-0.476 0.077,-1.169 0.048,-0.601 0.035,-0.776 c 0.016,-0.567 0.048,-1.402 0.06,-1.988 0.012,-0.766 0.024,-0.766 0.036,-1.304 l 0.024,-1.593 -0.012,-2.047 c -0.024,-1.173 -0.026,-1.187 -0.036,-2.035 0.008,-0.137 -0.022,-0.563 -0.026,-0.7 -0.008,-0.317 -0.014,-0.633 -0.021,-0.951 -0.01,-0.494 -0.022,-0.988 -0.03,-1.483 -0.006,-0.296 -0.067,-1.274 -0.055,-1.092 0,0.002 0,0.002 0,0 L 17.144,21.515 17.023,20.201 16.991,19.925 16.874,18.732 16.792,17.9 16.742,17.428 16.698,17.042 16.615,16.32 16.459,15.253 C 16.391,14.764 16.318,14.274 16.251,13.785 16.198,13.394 16.13,13.004 16.087,12.61 16.047,12.249 15.977,11.892 15.935,11.53 15.911,11.313 15.874,11.099 15.832,10.885 15.73,10.369 15.614,9.856 15.514,9.341 15.406,8.778 15.29,8.218 15.178,7.655 15.09,7.211 15,6.767 14.913,6.322 14.812,5.807 14.699,5.293 14.571,4.783 14.319,3.777 14.077,2.77 13.831,1.764 13.699,1.226 13.569,0.688 13.436,0.151 l -0.044,-0.16 z"
         style="fill:#c4033c;fill-opacity:1;fill-rule:nonzero;stroke:none;stroke-width:0;stroke-linecap:round;stroke-linejoin:round;stroke-dasharray:none;stroke-opacity:1;paint-order:markers stroke fill"
         transform="matrix(1.3333333,0,0,-1.3333333,366.87827,465.08547)"
         clip-path="url(#clipPath60)" />
      <path
         id="path61"
         d="m 0,0 v 0 c 5.426,-8.143 16.935,-25.408 16.935,-25.408 0,0 14.633,21.939 16.957,25.426 l 0.004,-25.955 -53.8,-22.553 0.094,-0.104 -15.456,15.451 c 0.193,0.638 0.193,0.647 0.35,1.186 0.099,0.341 0.196,0.682 0.284,0.986 0.062,0.219 0.117,0.466 0.182,0.809 0.059,0.303 0.112,0.534 0.185,0.921 0.084,0.467 0.133,0.76 0.202,1.26 0.033,0.269 0.055,0.479 0.084,0.795 0.027,0.366 0.039,0.521 0.06,0.949 0.015,0.318 0.026,0.671 0.029,1.134 l -0.003,25.118 h 10e-4 -10e-4 c 0.025,-0.031 10e-4,0 10e-4,0 5.35,-8.029 11.609,-17.39 16.959,-25.418 z"
         style="fill:#c4033c;fill-opacity:1;fill-rule:nonzero;stroke:none;stroke-width:0;stroke-linecap:round;stroke-linejoin:round;stroke-dasharray:none;stroke-opacity:1;paint-order:markers stroke fill"
         transform="matrix(1.3333333,0,0,-1.3333333,245.692,252.50933)"
         clip-path="url(#clipPath62)" />
      <path
         id="path63"
         d="m 0,0 -12.625,30.386 38.944,38.986 c 0,0 0.166,-0.274 0.199,-0.324 0.044,-0.065 0.084,-0.133 0.127,-0.2 0.139,-0.217 0.277,-0.433 0.417,-0.649 0.247,-0.381 0.482,-0.772 0.749,-1.14 0.266,-0.368 0.565,-0.712 0.85,-1.067 0.037,-0.046 0.077,-0.09 0.113,-0.138 0.454,-0.601 0.964,-1.151 1.507,-1.673 0.228,-0.219 0.45,-0.445 0.672,-0.671 0.207,-0.213 0.429,-0.408 0.666,-0.589 0.504,-0.382 1.004,-0.77 1.504,-1.157 0.157,-0.122 0.321,-0.231 0.492,-0.331 0.596,-0.35 1.193,-0.7 1.79,-1.049 0.188,-0.111 0.381,-0.21 0.578,-0.301 0.592,-0.273 1.183,-0.55 1.772,-0.827 0.215,-0.101 0.436,-0.184 0.662,-0.257 2.2,-0.707 4.387,-1.45 6.572,-2.199 0.318,-0.109 0.628,-0.237 0.939,-0.362 1.172,-0.474 2.343,-0.949 3.516,-1.418 0.239,-0.096 0.475,-0.197 0.706,-0.309 1.246,-0.6 2.49,-1.203 3.736,-1.804 0.267,-0.128 0.531,-0.263 0.789,-0.408 1.175,-0.654 2.35,-1.305 3.523,-1.96 0.259,-0.145 0.515,-0.294 0.765,-0.453 1.153,-0.729 2.303,-1.463 3.454,-2.193 0.218,-0.138 0.431,-0.281 0.637,-0.434 1.065,-0.789 2.129,-1.578 3.195,-2.364 0.366,-0.271 0.723,-0.552 1.076,-0.839 0.997,-0.811 1.995,-1.622 2.991,-2.434 0.169,-0.138 0.333,-0.281 0.491,-0.431 1.03,-0.982 2.059,-1.967 3.088,-2.953 0.156,-0.15 0.312,-0.302 0.461,-0.461 0.959,-1.025 1.917,-2.052 2.874,-3.08 0.081,-0.086 0.154,-0.18 0.229,-0.271 0.032,-0.038 0.058,-0.078 0.058,-0.078 L 30.395,-12.706 C 27.849,-11.628 0.022,-0.074 0,0 0,-0.006 0,0 0,0 0,0 0,0 0,0"
         style="fill:#c4033c;fill-opacity:1;fill-rule:nonzero;stroke:none;stroke-width:0;stroke-linecap:round;stroke-linejoin:round;stroke-dasharray:none;stroke-opacity:1;paint-order:markers stroke fill"
         transform="matrix(1.3333333,0,0,-1.3333333,259.60813,393.2704)"
         clip-path="url(#clipPath64)" />
    </g>
  </g>
</svg>
