<?xml version="1.0" encoding="UTF-8" standalone="no"?>
<svg
   version="1.0"
   width="256pt"
   height="256pt"
   viewBox="0 0 256 256"
   preserveAspectRatio="xMidYMid"
   id="svg12016"
   sodipodi:docname="ENEM.svg"
   inkscape:export-filename="ENEM.png"
   inkscape:export-xdpi="72"
   inkscape:export-ydpi="72"
   inkscape:version="1.3.2 (091e20ef0f, 2023-11-25)"
   xmlns:inkscape="http://www.inkscape.org/namespaces/inkscape"
   xmlns:sodipodi="http://sodipodi.sourceforge.net/DTD/sodipodi-0.dtd"
   xmlns="http://www.w3.org/2000/svg"
   xmlns:svg="http://www.w3.org/2000/svg">
  <defs
     id="defs12020">
    <clipPath
       clipPathUnits="userSpaceOnUse"
       id="clipPath2">
      <path
         d="M 0,595.276 H 595.276 V 0 H 0 Z"
         transform="translate(-254.22171,-322.51811)"
         id="path2" />
    </clipPath>
    <clipPath
       clipPathUnits="userSpaceOnUse"
       id="clipPath4">
      <path
         d="M 0,595.276 H 595.276 V 0 H 0 Z"
         transform="translate(-200.32761,-278.7041)"
         id="path4" />
    </clipPath>
    <clipPath
       clipPathUnits="userSpaceOnUse"
       id="clipPath6">
      <path
         d="M 0,595.276 H 595.276 V 0 H 0 Z"
         transform="translate(-254.16261,-347.78711)"
         id="path6" />
    </clipPath>
    <clipPath
       clipPathUnits="userSpaceOnUse"
       id="clipPath8">
      <path
         d="M 0,595.276 H 595.276 V 0 H 0 Z"
         transform="translate(-297.13431,-246.4619)"
         id="path8" />
    </clipPath>
    <clipPath
       clipPathUnits="userSpaceOnUse"
       id="clipPath10">
      <path
         d="M 0,595.276 H 595.276 V 0 H 0 Z"
         transform="translate(-398.31641,-236.7002)"
         id="path10" />
    </clipPath>
    <clipPath
       clipPathUnits="userSpaceOnUse"
       id="clipPath12">
      <path
         d="M 0,595.276 H 595.276 V 0 H 0 Z"
         transform="translate(-320.56451,-269.876)"
         id="path12" />
    </clipPath>
    <clipPath
       clipPathUnits="userSpaceOnUse"
       id="clipPath14">
      <path
         d="M 0,595.276 H 595.276 V 0 H 0 Z"
         transform="translate(-232.543,-199.2568)"
         id="path14" />
    </clipPath>
    <clipPath
       clipPathUnits="userSpaceOnUse"
       id="clipPath16">
      <path
         d="M 0,595.276 H 595.276 V 0 H 0 Z"
         transform="translate(-388.60251,-246.46391)"
         id="path16" />
    </clipPath>
    <clipPath
       clipPathUnits="userSpaceOnUse"
       id="clipPath18">
      <path
         d="M 0,595.276 H 595.276 V 0 H 0 Z"
         transform="translate(-297.71241,-405.89701)"
         id="path18" />
    </clipPath>
    <clipPath
       clipPathUnits="userSpaceOnUse"
       id="clipPath20">
      <path
         d="M 0,595.276 H 595.276 V 0 H 0 Z"
         transform="translate(-308.14941,-300.32621)"
         id="path20" />
    </clipPath>
  </defs>
  <sodipodi:namedview
     id="namedview12018"
     pagecolor="#ffffff"
     bordercolor="#666666"
     borderopacity="1.0"
     inkscape:pageshadow="2"
     inkscape:pageopacity="0.0"
     inkscape:pagecheckerboard="true"
     inkscape:document-units="pt"
     showgrid="false"
     inkscape:zoom="0.64995544"
     inkscape:cx="-139.24031"
     inkscape:cy="321.56051"
     inkscape:window-width="1920"
     inkscape:window-height="928"
     inkscape:window-x="0"
     inkscape:window-y="44"
     inkscape:window-maximized="1"
     inkscape:current-layer="g60084"
     inkscape:showpageshadow="2"
     inkscape:deskcolor="#d1d1d1" />
  <g
     id="g21517">
    <g
       id="g60084"
       transform="translate(8.5700433,-9.3624759)">
      <g
         id="g6205"
         transform="matrix(0.13333333,0,0,0.13333333,-7.4273643,8.1141474)"
         inkscape:export-filename="AMAT.png"
         inkscape:export-xdpi="72"
         inkscape:export-ydpi="72">
        <circle
           style="fill:#ffffff;fill-opacity:0.99536;fill-rule:evenodd;stroke-width:0.792497"
           id="path564"
           cx="951.42993"
           cy="969.36249"
           r="960" />
      </g>
      <g
         id="g20"
         transform="matrix(0.60958867,0,0,0.60958867,-122.48576,-109.5887)">
        <path
           id="path1"
           d="m 0,0 -0.029,-33.125 c 0,0 0,-10e-4 -10e-4,-10e-4 0,0 10e-4,10e-4 0,0 l 10e-4,10e-4 -23.178,-23.33 c 0,0 -10e-4,0 0,0 0,0 0,0 0,0 l -30.687,12.641 -8.57,20.354 c 0.029,0.121 0.04,0.174 0.196,0.836 0.231,0.991 0.46,1.983 0.692,2.973 0.086,0.365 0.163,0.733 0.267,1.094 0.349,1.216 0.693,2.432 1.041,3.648 0.087,0.304 0.173,0.607 0.286,0.904 0.364,0.96 0.72,1.924 1.083,2.885 0.111,0.296 0.223,0.592 0.348,0.882 0.396,0.916 0.797,1.83 1.197,2.744 0.151,0.344 0.298,0.69 0.462,1.028 0.543,1.12 1.093,2.237 1.642,3.355 0.067,0.139 0.14,0.276 0.216,0.409 0.641,1.116 1.134,1.964 1.798,3.067 0.263,0.436 0.254,0.436 0.503,0.838 0.79,1.275 1.21,1.918 1.897,3.004 l 20.274,8.441 c 0,0 0,0 0,0 L 0,0 c 0,0 0,0 0,0"
           style="fill:#0b6c2a;fill-opacity:1;fill-rule:nonzero;stroke:none"
           transform="matrix(1.3333333,0,0,-1.3333333,338.96227,363.6772)"
           clip-path="url(#clipPath2)" />
        <path
           id="path3"
           d="M 0,0 V 0 L 12.668,-30.512 -1.827,-44.984 c -0.549,1.095 -1.11,2.213 -1.658,3.308 -0.048,0.098 -0.089,0.198 -0.132,0.299 -0.332,0.772 -0.664,1.543 -0.993,2.315 -0.143,0.336 -0.293,0.671 -0.419,1.014 -0.377,1.019 -0.745,2.042 -1.115,3.064 -0.05,0.139 -0.1,0.279 -0.138,0.422 -0.207,0.763 -0.407,1.528 -0.614,2.291 -0.255,0.943 -0.5,1.891 -0.811,2.819 -0.024,0.075 -0.046,0.151 -0.063,0.228 -0.14,0.637 -0.278,1.274 -0.417,1.912 -0.186,0.859 -0.363,1.72 -0.559,2.578 -0.16,0.715 -0.32,1.608 -0.456,2.417 -0.067,0.399 -0.139,0.798 -0.208,1.198 -0.069,0.399 -0.152,0.818 -0.221,1.218 -0.07,0.409 -0.209,1.275 -0.269,1.772 0,0 -0.066,0.521 -0.142,1.141 -0.023,0.206 -0.049,0.412 -0.073,0.619 -0.03,0.255 -0.061,0.51 -0.089,0.765 -0.028,0.256 -0.053,0.512 -0.082,0.767 -0.029,0.256 -0.064,0.511 -0.092,0.766 -0.048,0.432 -0.085,0.866 -0.142,1.298 -0.049,0.382 -0.062,0.768 -0.096,1.152 -0.035,0.404 -0.06,0.767 -0.086,1.171 -0.031,0.404 -0.066,0.94 -0.094,1.345 -0.029,0.404 -0.062,0.898 -0.089,1.302 -0.025,0.395 -0.06,0.789 -0.071,1.185 -0.017,0.603 -0.039,1.167 -0.045,1.77 -0.009,0.791 -0.019,1.58 -0.023,2.414 0,0 -0.001,0.094 -0.001,0.651 0,0 0,0.143 0.005,0.514 0,0 0.013,0.319 0.032,0.627 0.033,0.621 0.062,1.245 0.078,1.867 0.019,0.752 0.058,1.502 0.087,2.253 0.01,0.256 0.015,0.513 0.024,0.77 0.002,0.05 0.009,0.099 0.02,0.147 0.003,0.011 0.033,0.029 0.046,0.025 0.066,-0.017 0.133,-0.036 0.196,-0.063 C -10.099,4.177 0,0 0,0"
           style="fill:#0b6c2a;fill-opacity:1;fill-rule:nonzero;stroke:none"
           transform="matrix(1.3333333,0,0,-1.3333333,267.10347,422.09587)"
           clip-path="url(#clipPath4)" />
        <path
           id="path5"
           d="m 0,0 v 0 l -30.502,-12.621 -9.826,4.093 c 0.063,0.064 0.145,0.147 0.196,0.193 0.747,0.681 1.498,1.357 2.242,2.041 0.576,0.53 1.544,1.363 2.154,1.853 0.826,0.662 1.646,1.331 2.469,1.994 0.17,0.137 0.344,0.267 0.52,0.395 0.904,0.657 1.809,1.312 2.713,1.968 0.069,0.05 0.139,0.098 0.206,0.15 0.411,0.319 0.844,0.608 1.286,0.883 1.045,0.65 2.085,1.309 3.128,1.962 0.186,0.117 0.376,0.228 0.569,0.334 1.256,0.689 2.513,1.376 3.77,2.063 0.116,0.063 0.233,0.122 0.352,0.178 1.354,0.642 2.706,1.286 4.064,1.922 0.384,0.179 0.78,0.334 1.172,0.498 1.046,0.439 2.093,0.877 3.14,1.313 0.156,0.065 0.314,0.124 0.475,0.177 1.415,0.467 2.831,0.936 4.249,1.395 0.422,0.137 0.854,0.246 1.281,0.367 0.228,0.064 0.458,0.125 0.685,0.19 0.134,0.038 0.263,0.088 0.389,0.146 0.529,0.244 1.059,0.486 1.587,0.73 0.114,0.052 0.226,0.107 0.336,0.165 0.354,0.188 0.708,0.376 1.066,0.556 0.37,0.186 0.726,0.393 1.073,0.618 0.365,0.237 0.84,0.535 1.207,0.769 C 0.001,9.563 0,4.769 0,0"
           style="fill:#0b6c2a;fill-opacity:1;fill-rule:nonzero;stroke:none"
           transform="matrix(1.3333333,0,0,-1.3333333,338.88347,329.9852)"
           clip-path="url(#clipPath6)" />
        <path
           id="path7"
           d="m 0,0 h 33.07 l 12.651,-30.605 c -2.051,-4.967 -10.526,-25.449 -10.526,-25.449 0,0 -1.21,-0.077 -1.712,-0.111 l -1.748,-0.096 -1.676,-0.068 c -0.652,-0.026 -1.852,-0.075 -2.505,-0.104 -0.474,-0.02 -0.949,-0.038 -1.423,-0.057 -0.514,-0.021 -1.028,-0.041 -1.542,-0.062 -0.474,-0.018 -0.949,-0.038 -1.423,-0.056 -0.514,-0.021 -1.028,-0.045 -1.542,-0.061 -0.88,-0.027 -1.76,-0.051 -2.64,-0.075 0,0 -0.216,-0.012 -1.961,-0.052 -0.652,-0.019 -1.712,-0.048 -3.646,-0.106 l -2.432,-0.067 c -0.003,0 0,0 0,0 l -2.226,-0.056 c -1.641,-0.008 -3.284,-0.015 -4.927,-0.023 -0.573,-0.003 -1.147,-0.007 -1.72,-0.011 l -3.25,-0.024 -1.958,-0.019 -7.529,3.215 1.234,-3.131 c 0,0 0,-10e-4 -0.291,0.002 -0.357,0.004 -0.547,0.01 -0.919,0.027 -0.296,0.013 -0.592,0.021 -0.889,0.031 -0.425,0.015 -0.85,0.029 -1.275,0.044 -0.188,0.006 -0.376,0.01 -0.564,0.016 -0.425,0.013 -0.85,0.029 -1.276,0.044 -0.188,0.005 -0.376,0.008 -0.563,0.015 -0.416,0.014 -0.831,0.029 -1.246,0.043 -0.791,0.025 -1.582,0.048 -2.373,0.072 -0.049,0.002 -0.099,0.006 -0.149,0.008 -0.217,0.007 -0.434,0.017 -0.652,0.02 -0.237,0.004 -0.475,-0.003 -0.712,0.002 -0.386,0.007 -0.772,0.019 -1.157,0.033 -0.336,0.012 -0.672,0.029 -1.008,0.044 -0.129,0.006 -0.257,0.01 -0.386,0.015 -0.316,0.014 -0.632,0.03 -0.948,0.043 -0.139,0.007 -0.277,0.01 -0.415,0.016 -0.337,0.015 -0.673,0.03 -1.009,0.045 -0.118,0.005 -0.237,0.009 -0.356,0.014 -0.345,0.015 -0.691,0.031 -1.037,0.046 -0.119,0.005 -0.238,0.008 -0.356,0.014 -0.326,0.015 -0.652,0.029 -0.978,0.044 -0.129,0.006 -0.258,0.009 -0.386,0.015 -0.336,0.014 -0.672,0.03 -1.008,0.045 -0.118,0.006 -0.237,0.008 -0.356,0.013 -0.345,0.016 -0.648,0.035 -0.994,0.05 -0.139,0.006 -0.766,0.037 -0.904,0.048 -0.521,0.04 -1.185,0.083 -1.185,0.083 l -0.885,0.059 c -0.395,0.032 -0.789,0.065 -1.183,0.095 0,0 -0.252,0.033 -1.338,0.146 -0.634,0.065 -0.967,0.099 -1.466,0.167 -0.645,0.089 -1.049,0.152 -1.694,0.233 -0.397,0.05 -0.791,0.113 -1.183,0.191 -0.433,0.087 -0.868,0.167 -1.303,0.25 -0.562,0.108 -1.093,0.212 -1.656,0.32 -0.57,0.122 -1.071,0.229 -1.311,0.287 l -0.575,0.126 -1.75,0.422 c -0.709,0.171 -1.32,0.341 -2.002,0.52 -1.156,0.342 -3.196,0.922 -3.196,0.922 0,0 9.499,9.571 11.061,11.143 l 30.639,-12.642 c 0,0 -0.009,-0.012 0,0 0,0 0.006,-0.016 0,0 l -12.719,30.591 c 0,0 0.022,-0.048 0,0 0,0 15.814,15.729 23.384,23.296"
           style="fill:#374a95;fill-opacity:1;fill-rule:nonzero;stroke:none"
           transform="matrix(1.3333333,0,0,-1.3333333,396.17907,465.08547)"
           clip-path="url(#clipPath8)" />
        <path
           id="path9"
           d="M 0,0 V 0 C -0.135,-0.287 -0.208,-0.431 -0.264,-0.546 -0.859,-1.759 -1.454,-2.972 -2.052,-4.185 -2.125,-4.335 -2.204,-4.482 -2.287,-4.628 -3.028,-5.919 -3.77,-7.21 -4.513,-8.5 -4.604,-8.658 -4.7,-8.813 -4.802,-8.965 c -0.84,-1.249 -1.68,-2.497 -2.521,-3.745 -0.132,-0.196 -0.27,-0.389 -0.419,-0.571 -0.821,-1.004 -1.625,-2.025 -2.319,-3.12 -0.153,-0.243 -0.331,-0.471 -0.52,-0.688 -0.892,-1.023 -1.785,-2.046 -2.677,-3.069 -0.224,-0.258 -0.603,-0.667 -0.843,-0.911 -0.944,-0.963 -1.884,-1.93 -2.828,-2.894 -0.126,-0.13 -0.256,-0.256 -0.389,-0.378 -1.078,-0.984 -2.156,-1.969 -3.235,-2.952 -0.161,-0.145 -0.326,-0.287 -0.496,-0.423 -1.059,-0.846 -2.121,-1.689 -3.181,-2.532 -0.277,-0.22 -0.742,-0.562 -1.034,-0.761 -1.097,-0.75 -2.191,-1.504 -3.287,-2.256 -0.131,-0.089 -0.262,-0.176 -0.397,-0.26 -1.295,-0.807 -2.59,-1.614 -3.886,-2.419 -0.128,-0.08 -0.259,-0.156 -0.392,-0.226 -1.34,-0.708 -2.418,-1.267 -3.759,-1.973 -0.114,-0.06 -0.871,-0.449 -0.988,-0.503 -1.365,-0.634 -1.92,-0.884 -3.286,-1.517 -0.147,-0.068 -0.952,-0.392 -1.104,-0.449 -0.575,-0.216 -0.929,-0.369 -1.505,-0.584 -0.843,-0.314 -1.737,-0.674 -2.58,-0.987 l -0.177,-0.072 -8.836,21.411 12.76,30.606 c 0.034,0.082 0,0 0,0 l 32.987,0.002 z"
           style="fill:#374a95;fill-opacity:1;fill-rule:nonzero;stroke:none"
           transform="matrix(1.3333333,0,0,-1.3333333,531.08853,478.10107)"
           clip-path="url(#clipPath10)" />
        <path
           id="path11"
           d="m 0,0 v 0 l -23.43,-23.414 -42.941,0.059 c 0,14.026 -0.004,28.876 -0.004,42.904 0.002,-0.033 0.003,-0.032 0.003,-0.032 l 23.408,23.413 30.549,-12.48 z"
           style="fill:#f3a304;fill-opacity:1;fill-rule:nonzero;stroke:none"
           transform="matrix(1.3333333,0,0,-1.3333333,427.41933,433.86667)"
           clip-path="url(#clipPath12)" />
        <path
           id="path13"
           d="m 0,0 v 0 l -0.954,0.549 c -1.215,0.7 -1.353,0.788 -2.567,1.49 0,0 -0.445,0.313 -1.33,0.844 -1.22,0.788 -1.579,1.008 -2.8,1.796 0,0 -1.11,0.749 -1.453,1 -0.966,0.705 -1.713,1.236 -2.677,1.944 0,0 -0.894,0.724 -1.23,1.001 -0.884,0.73 -1.767,1.464 -2.648,2.197 -0.205,0.171 -0.407,0.347 -0.602,0.529 -1.03,0.956 -2.056,1.915 -3.083,2.873 -0.086,0.081 -0.171,0.164 -0.251,0.252 -1.007,1.102 -2.015,2.204 -3.017,3.312 -0.338,0.374 -0.661,0.762 -0.988,1.147 -0.723,0.851 -1.445,1.704 -2.167,2.557 -0.064,0.075 -0.127,0.152 -0.186,0.231 -0.897,1.218 -1.793,2.437 -2.689,3.656 -0.023,0.032 -0.109,0.155 -0.129,0.189 l 28.772,0.001 z"
           style="fill:#f3a304;fill-opacity:1;fill-rule:nonzero;stroke:none"
           transform="matrix(1.3333333,0,0,-1.3333333,310.05733,528.0256)"
           clip-path="url(#clipPath14)" />
        <path
           id="path15"
           d="M 0,0 V 0 C -3.453,3.455 -23.437,23.227 -23.437,23.227 L 1.423,83.075 C 1.544,82.906 1.632,82.777 1.697,82.68 2.054,82.158 2.409,81.634 2.764,81.111 2.853,80.98 2.94,80.849 3.029,80.718 3.429,80.129 3.84,79.547 4.224,78.948 4.608,78.35 4.966,77.734 5.335,77.126 5.716,76.5 6.096,75.874 6.478,75.248 6.609,75.032 6.733,74.811 6.85,74.586 7.465,73.396 8.081,72.208 8.698,71.02 8.813,70.799 8.991,70.433 9.094,70.207 9.643,69 10.189,67.794 10.741,66.589 c 0.164,-0.36 0.309,-0.728 0.453,-1.095 0.42,-1.066 0.828,-2.137 1.255,-3.2 0.162,-0.404 0.297,-0.816 0.412,-1.235 0.418,-1.523 0.829,-3.049 1.251,-4.572 0.127,-0.457 0.215,-0.923 0.319,-1.385 0.141,-0.636 0.279,-1.273 0.419,-1.91 0.169,-0.772 0.338,-1.543 0.506,-2.315 0.033,-0.32 0.128,-0.629 0.162,-0.95 0.026,-0.259 0.064,-0.517 0.13,-0.768 0.085,-0.318 0.085,-0.651 0.179,-0.968 0.068,-0.569 0.199,-1.128 0.279,-1.695 0.046,-0.333 0.126,-0.66 0.177,-0.992 0.062,-0.41 0.106,-0.766 0.162,-1.234 l 0.068,-0.589 0.043,-0.39 0.094,-0.79 0.028,-0.294 0.068,-0.62 0.052,-0.463 0.073,-0.625 0.045,-0.413 0.031,-0.355 0.104,-1.271 0.04,-0.476 0.077,-1.17 0.048,-0.6 0.035,-0.777 c 0.016,-0.566 0.048,-1.401 0.06,-1.987 0.012,-0.766 0.024,-0.766 0.036,-1.305 l 0.024,-1.592 -0.013,-2.047 c -0.023,-1.173 -0.025,-1.187 -0.035,-2.035 0.008,-0.138 -0.022,-0.563 -0.026,-0.701 -0.008,-0.317 -0.014,-0.633 -0.021,-0.95 -0.01,-0.494 -0.022,-0.989 -0.031,-1.483 -0.005,-0.296 -0.066,-1.274 -0.054,-1.092 0,10e-4 0,10e-4 0,0 L 17.144,21.515 17.023,20.202 16.991,19.926 16.874,18.733 16.792,17.9 16.742,17.429 16.697,17.043 16.615,16.321 16.459,15.253 C 16.391,14.764 16.318,14.275 16.251,13.786 16.197,13.394 16.13,13.004 16.087,12.611 16.047,12.25 15.977,11.893 15.936,11.531 15.91,11.314 15.873,11.1 15.831,10.886 15.73,10.37 15.613,9.857 15.514,9.342 15.405,8.779 15.289,8.218 15.178,7.656 15.09,7.212 15,6.768 14.912,6.323 14.812,5.807 14.698,5.294 14.57,4.783 14.319,3.778 14.077,2.771 13.831,1.764 13.699,1.227 13.569,0.688 13.436,0.152 l -0.044,-0.161 z"
           style="fill:#c4033c;fill-opacity:1;fill-rule:nonzero;stroke:none"
           transform="matrix(1.3333333,0,0,-1.3333333,518.13667,465.0828)"
           clip-path="url(#clipPath16)" />
        <path
           id="path17"
           d="m 0,0 v 0 c 5.426,-8.144 16.935,-25.408 16.935,-25.408 0,0 14.633,21.938 16.957,25.426 l 0.005,-25.955 -53.801,-22.554 0.094,-0.103 -15.456,15.451 c 0.193,0.638 0.193,0.647 0.35,1.185 0.099,0.342 0.197,0.683 0.284,0.987 0.062,0.219 0.118,0.466 0.182,0.808 0.06,0.303 0.113,0.535 0.185,0.921 0.084,0.467 0.134,0.761 0.202,1.26 0.033,0.27 0.056,0.48 0.084,0.796 0.027,0.365 0.039,0.521 0.06,0.949 0.015,0.317 0.027,0.671 0.029,1.134 l -0.002,25.118 c 0.025,-0.031 0,0 0,0 5.35,-8.029 11.609,-17.39 16.959,-25.418 z"
           style="fill:#c4033c;fill-opacity:1;fill-rule:nonzero;stroke:none"
           transform="matrix(1.3333333,0,0,-1.3333333,396.94987,252.50533)"
           clip-path="url(#clipPath18)" />
        <path
           id="path19"
           d="m 0,0 -12.625,30.385 38.944,38.986 c 0,0 0.166,-0.273 0.2,-0.323 0.043,-0.066 0.084,-0.134 0.127,-0.2 0.138,-0.217 0.276,-0.433 0.416,-0.649 0.248,-0.382 0.482,-0.772 0.749,-1.14 0.266,-0.368 0.565,-0.713 0.85,-1.067 0.037,-0.047 0.077,-0.091 0.113,-0.138 0.455,-0.601 0.964,-1.151 1.507,-1.673 0.229,-0.219 0.45,-0.445 0.672,-0.671 0.207,-0.213 0.429,-0.409 0.666,-0.589 0.504,-0.383 1.004,-0.77 1.504,-1.158 0.157,-0.121 0.321,-0.23 0.492,-0.33 0.597,-0.351 1.194,-0.7 1.79,-1.05 0.188,-0.11 0.381,-0.209 0.578,-0.3 0.592,-0.274 1.183,-0.55 1.773,-0.828 0.215,-0.1 0.435,-0.183 0.662,-0.256 2.199,-0.707 4.386,-1.45 6.571,-2.199 0.319,-0.109 0.628,-0.237 0.94,-0.362 1.172,-0.474 2.342,-0.949 3.516,-1.419 0.239,-0.095 0.475,-0.196 0.705,-0.308 1.246,-0.6 2.491,-1.204 3.737,-1.804 0.266,-0.129 0.53,-0.264 0.789,-0.408 1.174,-0.654 2.349,-1.306 3.522,-1.96 0.259,-0.145 0.516,-0.294 0.766,-0.453 1.152,-0.729 2.302,-1.463 3.454,-2.193 0.217,-0.138 0.43,-0.282 0.637,-0.435 1.064,-0.788 2.129,-1.578 3.195,-2.364 0.366,-0.27 0.723,-0.552 1.075,-0.839 0.998,-0.811 1.995,-1.621 2.991,-2.434 0.169,-0.137 0.333,-0.28 0.491,-0.43 1.031,-0.983 2.059,-1.968 3.088,-2.953 0.157,-0.15 0.313,-0.303 0.461,-0.461 0.959,-1.026 1.917,-2.053 2.875,-3.081 0.081,-0.085 0.153,-0.179 0.229,-0.271 0.031,-0.038 0.057,-0.078 0.057,-0.078 L 30.396,-12.706 C 27.85,-11.628 0.022,-0.074 0,0 0,-0.007 0,0 0,0 0,0 0.001,0 0,0"
           style="fill:#c4033c;fill-opacity:1;fill-rule:nonzero;stroke:none"
           transform="matrix(1.3333333,0,0,-1.3333333,410.86587,393.2664)"
           clip-path="url(#clipPath20)" />
      </g>
    </g>
  </g>
</svg>
